<svg width="17" height="32" viewBox="0 0 17 32" fill="none" xmlns="http://www.w3.org/2000/svg">
<path id="Path" d="M15.9844 32C15.8277 31.9976 15.6738 31.9664 15.5341 31.9088C15.4221 31.8561 15.3289 31.7807 15.264 31.6899L0.607857 17.333C0.220376 16.9598 0.00543943 16.4889 0 16.0013C0.00160613 15.5131 0.217012 15.0411 0.607857 14.6696L15.264 0.312671C15.4329 0.134776 15.686 0.0223086 15.9619 0.00254697C16.2397 -0.0148362 16.5147 0.0572712 16.7273 0.203215C16.835 0.270203 16.9201 0.35802 16.975 0.458611C17.0074 0.560318 17.0074 0.667028 16.975 0.768735C17.0083 0.876521 17.0083 0.989314 16.975 1.0971C16.9472 1.20539 16.8851 1.30597 16.7949 1.38898L2.2063 15.7459C2.05533 15.8942 2.05533 16.1084 2.2063 16.2567L16.7724 30.5953C16.9347 30.7743 17.0144 30.9938 16.9975 31.2156C16.9725 31.44 16.8439 31.6485 16.6373 31.7993C16.4506 31.9195 16.2225 31.9897 15.9844 32Z" fill="black"/>
</svg>
