<svg width="34" height="34" viewBox="0 0 34 34" fill="none" xmlns="http://www.w3.org/2000/svg">
<g id="&#233;&#128;&#154;&#232;&#174;&#175;&#229;&#189;&#149;">
<g id="User-Fill">
<path id="Path" d="M22.3188 6.26106C22.3347 8.80908 20.7926 11.1109 18.4229 12.0763C17.2675 12.5381 16.0029 12.6592 14.7802 12.4252C12.2786 11.9334 10.3227 9.98778 9.82757 7.49868C9.33241 5.00958 10.3959 2.46921 12.5205 1.06612C13.5716 0.372344 14.8045 0.00157745 16.0658 0C17.7334 0.00193207 19.3316 0.664571 20.5072 1.84149C21.1103 2.41679 21.5878 3.10966 21.9097 3.87682C22.1996 4.63781 22.3385 5.44748 22.3188 6.26106V6.26106Z" fill="#1D1D1B"/>
<path id="&#229;&#189;&#162;&#231;&#138;&#182;&#231;&#187;&#147;&#229;&#144;&#136;" fill-rule="evenodd" clip-rule="evenodd" d="M23.8518 33.9998C21.7047 32.3556 20.5068 29.7239 20.7108 26.9869C20.8808 24.9987 21.765 23.1396 23.1994 21.7542C23.9792 21.0478 24.8819 20.5066 25.8534 20.1517C23.1126 18.1379 19.7341 16.9658 16.1245 16.9658C8.33998 16.9658 1.63049 22.4169 0.0732143 30.0066C-0.0244047 30.4799 -0.0244047 30.9679 0.0732143 31.4411C0.187045 31.9106 0.406886 32.3481 0.716043 32.7204C1.38933 33.5392 2.39957 34.0097 3.46268 33.9998H23.8518Z" fill="#1D1D1B"/>
</g>
<path id="Shape" fill-rule="evenodd" clip-rule="evenodd" d="M28.8209 22C29.3582 22.0264 29.8875 22.1421 30.3872 22.3426L30.4553 22.3084C31.7353 22.803 32.7897 23.7542 33.4176 24.9808C34.0323 26.2178 34.1659 27.6413 33.7922 28.9722C33.4319 30.3064 32.5795 31.4521 31.4087 32.1757C29.644 33.2692 27.4191 33.2752 25.6487 32.1911C23.8782 31.1071 22.8611 29.116 23.0154 27.0364C23.1317 25.6695 23.7365 24.3914 24.7179 23.439C25.735 22.513 27.0577 22.0002 28.4293 22H28.8209ZM29.0845 31.0914C29.1703 30.9656 29.2122 30.8149 29.2035 30.6629L29.0607 28.2825L31.441 28.2825C31.5439 28.2926 31.6475 28.2719 31.7386 28.223C31.8257 28.1693 31.8991 28.0959 31.9528 28.0088C32.0368 27.9601 32.1065 27.8904 32.1552 27.8064C32.204 27.7153 32.2248 27.6118 32.2147 27.5089C32.221 27.4083 32.2089 27.3075 32.179 27.2113C32.1194 27.129 32.047 27.0567 31.9647 26.9971L31.8576 26.6757C31.7614 26.6458 31.6606 26.6337 31.5601 26.64H29.1797L29.2749 24.3548C29.278 24.1456 29.1962 23.944 29.0482 23.796C28.9002 23.648 28.6986 23.5663 28.4894 23.5693C28.2848 23.5601 28.0858 23.6379 27.9419 23.7836C27.7923 23.9307 27.7104 24.1332 27.7157 24.3429V26.7233H25.3353C25.2329 26.7203 25.1311 26.7406 25.0378 26.7829C24.9535 26.8401 24.8808 26.9128 24.8235 26.9971C24.7533 27.1002 24.7084 27.2185 24.6926 27.3422C24.6504 27.4356 24.63 27.5374 24.6331 27.6398C24.6394 27.8402 24.72 28.0311 24.8593 28.1754C25.0104 28.3221 25.2085 28.4107 25.4186 28.4253L27.7038 28.3301L27.7038 30.7105C27.7068 30.9116 27.7879 31.1037 27.93 31.2461C28.0372 31.3519 28.1743 31.4225 28.3227 31.4484C28.4699 31.4786 28.6227 31.4662 28.7631 31.4127C28.8922 31.3301 29.0018 31.2205 29.0845 31.0914Z" fill="#1D1D1B"/>
</g>
</svg>
