<svg width="32" height="36" viewBox="0 0 32 36" fill="none" xmlns="http://www.w3.org/2000/svg">
<g clip-path="url(#clip0_1_20)">
<path fill-rule="evenodd" clip-rule="evenodd" d="M5.72669 1H26.5159C27.7668 1.00979 28.9639 1.4829 29.8512 2.31813C30.731 3.15833 31.2239 4.29431 31.2222 5.47776V30.5222C31.2276 31.708 30.7342 32.847 29.851 33.6873C28.9678 34.5276 27.7677 35 26.5159 35H5.72669C4.47315 35.0029 3.27109 34.5279 2.39141 33.6818C1.50602 32.8436 1.00594 31.708 0.999998 30.5222V5.47776C1.01464 4.29364 1.5134 3.16104 2.39141 2.31813C3.27874 1.4829 4.47586 1.00979 5.72669 1ZM22.7248 18.0751H9.49835C9.24411 18.0774 9.0012 18.1725 8.8227 18.3395C8.65224 18.5015 8.55678 18.7183 8.55653 18.944C8.54473 19.1776 8.64017 19.405 8.81941 19.5703C8.99866 19.7357 9.24513 19.8238 9.49835 19.8129H22.7248C22.9766 19.8176 23.2199 19.7292 23.4005 19.5673C23.5672 19.3956 23.6616 19.1744 23.6667 18.944C23.6664 18.7183 23.5709 18.5015 23.4005 18.3395C23.222 18.1725 22.9791 18.0774 22.7248 18.0751ZM8.55653 14.2218C8.55678 13.996 8.65224 13.7793 8.8227 13.6173C9.0012 13.4503 9.24411 13.3552 9.49835 13.3529H22.7248C23.245 13.3529 23.6667 13.7419 23.6667 14.2218C23.6667 14.7016 23.245 15.0907 22.7248 15.0907H9.49835C9.24513 15.1015 8.99866 15.0135 8.81941 14.8481C8.64017 14.6828 8.54473 14.4554 8.55653 14.2218ZM9.49744 10.369H22.7248C22.979 10.3666 23.222 10.2716 23.4005 10.1045C23.5709 9.9426 23.6664 9.72582 23.6667 9.50009C23.6654 9.26894 23.5705 9.04658 23.4005 8.87675C23.2199 8.71487 22.9765 8.62644 22.7248 8.6312H9.49744C9.24568 8.62644 9.00233 8.71487 8.82174 8.87675C8.65174 9.04658 8.55679 9.26894 8.55555 9.50009C8.5558 9.72582 8.65127 9.9426 8.82174 10.1045C9.00026 10.2716 9.24318 10.3666 9.49744 10.369Z" fill="#D8D8D8"/>
<path d="M26.5159 1L26.5198 0.5H26.5159V1ZM5.72669 1V0.499985L5.72278 0.500015L5.72669 1ZM29.8512 2.31813L30.1966 1.95653L30.1939 1.95405L29.8512 2.31813ZM31.2222 30.5222H30.7222V30.5245L31.2222 30.5222ZM5.72669 35V34.5H5.72551L5.72669 35ZM2.39141 33.6818L2.73801 33.3215L2.73516 33.3188L2.39141 33.6818ZM0.999998 30.5222H0.499992L0.500004 30.5247L0.999998 30.5222ZM0.999998 5.47776L0.499998 5.47158V5.47776H0.999998ZM2.39141 2.31813L2.04869 1.95403L2.04514 1.95744L2.39141 2.31813ZM9.49835 18.0751V17.5751H9.49375L9.49835 18.0751ZM22.7248 18.0751L22.7294 17.5751H22.7248V18.0751ZM8.8227 18.3395L8.48106 17.9744L8.47832 17.977L8.8227 18.3395ZM8.55653 18.944L9.05589 18.9692L9.05652 18.9569L9.05653 18.9445L8.55653 18.944ZM9.49835 19.8129V19.3129H9.48761L9.47688 19.3133L9.49835 19.8129ZM22.7248 19.8129L22.7343 19.3129H22.7248V19.8129ZM23.4005 19.5673L23.7342 19.9396L23.7472 19.928L23.7592 19.9156L23.4005 19.5673ZM23.6667 18.944L24.1667 18.9549V18.9434L23.6667 18.944ZM23.4005 18.3395L23.7449 17.977L23.7421 17.9744L23.4005 18.3395ZM8.8227 13.6173L8.48106 13.2522L8.47832 13.2548L8.8227 13.6173ZM8.55653 14.2218L9.05589 14.247L9.05652 14.2347L9.05653 14.2223L8.55653 14.2218ZM9.49835 13.3529V12.8529H9.49375L9.49835 13.3529ZM9.49835 15.0907V14.5907H9.48761L9.47688 14.5911L9.49835 15.0907ZM22.7248 10.369V10.869H22.7294L22.7248 10.369ZM9.49744 10.369L9.49284 10.869H9.49744V10.369ZM23.4005 10.1045L23.7421 10.4696L23.7448 10.467L23.4005 10.1045ZM23.6667 9.50009L24.1667 9.50064L24.1666 9.49741L23.6667 9.50009ZM23.4005 8.87675L23.7538 8.52303L23.7443 8.51347L23.7342 8.50444L23.4005 8.87675ZM22.7248 8.6312V9.13129L22.7342 9.13111L22.7248 8.6312ZM9.49744 8.6312L9.48798 9.1312H9.49744V8.6312ZM8.82174 8.87675L8.488 8.50444L8.47793 8.51347L8.46836 8.52303L8.82174 8.87675ZM8.55555 9.50009L8.05555 9.49741V9.50064L8.55555 9.50009ZM8.82174 10.1045L8.47736 10.4671L8.48012 10.4696L8.82174 10.1045ZM26.5159 0.5L5.72669 0.499985V1.5H26.5159V0.5ZM30.1939 1.95405C29.2122 1.02994 27.893 0.510742 26.5198 0.5L26.512 1.49998C27.6405 1.50881 28.7156 1.93586 29.5085 2.68221L30.1939 1.95405ZM31.7222 5.47849C31.7241 4.15393 31.1723 2.88827 30.1966 1.95653L29.5059 2.67972C30.2898 3.42838 30.7237 4.43468 30.7222 5.47703L31.7222 5.47849ZM31.7222 30.5222V5.47849L30.7222 5.47703V30.5222H31.7222ZM30.1956 34.0495C31.1754 33.1173 31.7283 31.8477 31.7222 30.5199L30.7222 30.5245C30.727 31.5683 30.2929 32.5767 29.5063 33.3251L30.1956 34.0495ZM26.5159 35.5C27.8921 35.5 29.2168 34.9809 30.1956 34.0495L29.5063 33.3251C28.7189 34.0743 27.6432 34.5 26.5159 34.5V35.5ZM5.72669 35.5H26.5159V34.5H5.72669V35.5ZM2.04481 34.0422C3.02071 34.9808 4.3486 35.5032 5.72787 35.5L5.72551 34.5C4.5977 34.5026 3.52147 34.0749 2.73801 33.3215L2.04481 34.0422ZM0.500004 30.5247C0.506645 31.8513 1.0663 33.1158 2.04765 34.0449L2.73516 33.3188C1.94573 32.5714 1.50522 31.5648 1.49999 30.5197L0.500004 30.5247ZM0.499998 5.47776L0.499992 30.5222H1.5V5.47776H0.499998ZM2.04514 1.95744C1.07348 2.89026 0.516341 4.14935 0.499998 5.47158L1.49996 5.48394C1.51289 4.43793 1.95332 3.43182 2.73768 2.67882L2.04514 1.95744ZM5.72278 0.500015C4.34962 0.510757 3.03044 1.02992 2.04869 1.95403L2.73411 2.68221C3.52702 1.93586 4.6021 1.50881 5.7306 1.49998L5.72278 0.500015ZM9.49835 18.5751H22.7248V17.5751H9.49835V18.5751ZM9.16432 18.7046C9.2474 18.6269 9.36846 18.5763 9.50296 18.5751L9.49375 17.5751C9.11976 17.5786 8.755 17.7181 8.48106 17.9744L9.16432 18.7046ZM9.05653 18.9445C9.05662 18.8619 9.0912 18.7741 9.16707 18.702L8.47832 17.977C8.21328 18.2288 8.05694 18.5746 8.05653 18.9434L9.05653 18.9445ZM9.15845 19.2029C9.08293 19.1332 9.05194 19.0475 9.05589 18.9692L8.05717 18.9188C8.03752 19.3077 8.1974 19.6768 8.48037 19.9378L9.15845 19.2029ZM9.47688 19.3133C9.35078 19.3188 9.23568 19.2741 9.15845 19.2029L8.48037 19.9378C8.76163 20.1973 9.13948 20.3288 9.51982 20.3124L9.47688 19.3133ZM22.7248 19.3129H9.49835V20.3129H22.7248V19.3129ZM23.0667 19.195C22.9842 19.269 22.8649 19.3153 22.7343 19.3129L22.7154 20.3128C23.0882 20.3198 23.4556 20.1894 23.7342 19.9396L23.0667 19.195ZM23.1668 18.9331C23.1646 19.0321 23.1242 19.1341 23.0417 19.219L23.7592 19.9156C24.0102 19.6571 24.1588 19.3168 24.1667 18.9549L23.1668 18.9331ZM23.0561 18.702C23.132 18.7741 23.1666 18.8619 23.1667 18.9445L24.1667 18.9434C24.1662 18.5746 24.0099 18.2288 23.7449 17.977L23.0561 18.702ZM22.7202 18.5751C22.8547 18.5763 22.9758 18.6269 23.0589 18.7046L23.7421 17.9744C23.4682 17.7181 23.1034 17.5786 22.7294 17.5751L22.7202 18.5751ZM8.47832 13.2548C8.21327 13.5066 8.05694 13.8524 8.05653 14.2212L9.05653 14.2223C9.05662 14.1397 9.0912 14.0519 9.16707 13.9798L8.47832 13.2548ZM9.49375 12.8529C9.11976 12.8563 8.755 12.9959 8.48106 13.2522L9.16432 13.9824C9.2474 13.9047 9.36846 13.8541 9.50295 13.8529L9.49375 12.8529ZM22.7248 12.8529H9.49835V13.8529H22.7248V12.8529ZM24.1667 14.2218C24.1667 13.4286 23.4824 12.8529 22.7248 12.8529V13.8529C23.0076 13.8529 23.1667 14.0552 23.1667 14.2218H24.1667ZM22.7248 15.5907C23.4824 15.5907 24.1667 15.015 24.1667 14.2218H23.1667C23.1667 14.3883 23.0076 14.5907 22.7248 14.5907V15.5907ZM9.49835 15.5907H22.7248V14.5907H9.49835V15.5907ZM8.48038 15.2156C8.76164 15.4751 9.13948 15.6065 9.51982 15.5902L9.47688 14.5911C9.35078 14.5965 9.23568 14.5519 9.15845 14.4806L8.48038 15.2156ZM8.05717 14.1965C8.03752 14.5855 8.1974 14.9546 8.48038 15.2156L9.15845 14.4806C9.08293 14.411 9.05194 14.3253 9.05589 14.247L8.05717 14.1965ZM22.7248 9.86898H9.49744V10.869H22.7248V9.86898ZM23.0589 9.73943C22.9758 9.81717 22.8547 9.86776 22.7202 9.869L22.7294 10.869C23.1034 10.8655 23.4681 10.726 23.7421 10.4696L23.0589 9.73943ZM23.1667 9.49953C23.1666 9.58212 23.132 9.66994 23.0561 9.74202L23.7448 10.467C24.0099 10.2153 24.1662 9.86951 24.1667 9.50064L23.1667 9.49953ZM23.0471 9.23048C23.128 9.31128 23.1662 9.40907 23.1667 9.50277L24.1666 9.49741C24.1647 9.12881 24.013 8.78188 23.7538 8.52303L23.0471 9.23048ZM22.7342 9.13111C22.8649 9.12864 22.9842 9.17508 23.0667 9.24907L23.7342 8.50444C23.4556 8.25466 23.0882 8.12423 22.7153 8.13129L22.7342 9.13111ZM9.49744 9.1312L22.7248 9.13129V8.1312H9.49744V9.1312ZM9.15548 9.24907C9.23802 9.17508 9.3573 9.12873 9.48798 9.1312L9.50689 8.13129C9.13405 8.12423 8.76664 8.25466 8.488 8.50444L9.15548 9.24907ZM9.05554 9.50277C9.05605 9.40907 9.09424 9.31128 9.17512 9.23048L8.46836 8.52303C8.20925 8.78188 8.05752 9.12881 8.05555 9.49741L9.05554 9.50277ZM9.1661 9.74202C9.09022 9.66994 9.05564 9.58212 9.05555 9.49954L8.05555 9.50064C8.05596 9.86951 8.2123 10.2154 8.47736 10.4671L9.1661 9.74202ZM9.50204 9.869C9.36752 9.86776 9.24644 9.81717 9.16335 9.73943L8.48012 10.4696C8.75407 10.726 9.11884 10.8655 9.49284 10.869L9.50204 9.869Z" fill="#979797"/>
</g>
<defs>
<clipPath id="clip0_1_20">
<rect width="32" height="36" fill="white"/>
</clipPath>
</defs>
</svg>
