<svg width="34" height="34" viewBox="0 0 34 34" fill="none" xmlns="http://www.w3.org/2000/svg">
<path d="M28.3333 11.1492V28.4892C28.3409 29.3594 27.9986 30.1962 27.3832 30.8116C26.7679 31.427 25.931 31.7693 25.0608 31.7617H5.39747C4.52839 31.7655 3.69382 31.4219 3.07928 30.8074C2.46475 30.1928 2.12118 29.3583 2.12497 28.4892V8.88252C2.16337 7.10056 3.61511 5.67396 5.39747 5.66669H23.1625L16.1925 12.6367C14.7255 14.1037 14.7255 16.4822 16.1925 17.9492C17.6595 19.4162 20.038 19.4162 21.505 17.9492L26.9166 12.4525L28.3333 11.1492Z" fill="#D8D8D8"/>
<path d="M31.875 4.71748C31.8734 5.09608 31.7204 5.4583 31.45 5.72331L22.4683 14.705C22.265 14.8905 22.0154 15.0178 21.7458 15.0733C21.6485 15.3283 21.4623 15.5396 21.2217 15.6683L18.53 17.085C18.3679 17.1685 18.1882 17.2122 18.0058 17.2125C17.7086 17.2135 17.4232 17.0963 17.2125 16.8866C16.8697 16.5426 16.7843 16.0184 17 15.5833L18.4167 12.8916C18.5342 12.6645 18.7307 12.4882 18.9692 12.3958C19.0025 12.1037 19.138 11.8327 19.3517 11.6308L28.3333 2.66331C28.4613 2.52571 28.6154 2.41495 28.7867 2.33748C28.9624 2.2679 29.1502 2.23419 29.3392 2.23831C29.5234 2.23606 29.7062 2.26974 29.8775 2.33748C30.0502 2.4197 30.2081 2.52979 30.345 2.66331L31.4075 3.71165C31.5416 3.84511 31.6475 4.00407 31.7192 4.17915C31.8064 4.34642 31.8594 4.52945 31.875 4.71748Z" fill="#D8D8D8"/>
<path d="M28.3333 11.1492V28.4892C28.3409 29.3594 27.9986 30.1962 27.3832 30.8116C26.7679 31.427 25.931 31.7693 25.0608 31.7617H5.39747C4.52839 31.7655 3.69382 31.4219 3.07928 30.8074C2.46475 30.1928 2.12118 29.3583 2.12497 28.4892V8.88252C2.16337 7.10056 3.61511 5.67396 5.39747 5.66669H23.1625L16.1925 12.6367C14.7255 14.1037 14.7255 16.4822 16.1925 17.9492C17.6595 19.4162 20.038 19.4162 21.505 17.9492L26.9166 12.4525L28.3333 11.1492Z" stroke="#979797"/>
<path d="M31.875 4.71748C31.8734 5.09608 31.7204 5.4583 31.45 5.72331L22.4683 14.705C22.265 14.8905 22.0154 15.0178 21.7458 15.0733C21.6485 15.3283 21.4623 15.5396 21.2217 15.6683L18.53 17.085C18.3679 17.1685 18.1882 17.2122 18.0058 17.2125C17.7086 17.2135 17.4232 17.0963 17.2125 16.8866C16.8697 16.5426 16.7843 16.0184 17 15.5833L18.4167 12.8916C18.5342 12.6645 18.7307 12.4882 18.9692 12.3958C19.0025 12.1037 19.138 11.8327 19.3517 11.6308L28.3333 2.66331C28.4613 2.52571 28.6154 2.41495 28.7867 2.33748C28.9624 2.2679 29.1502 2.23419 29.3392 2.23831C29.5234 2.23606 29.7062 2.26974 29.8775 2.33748C30.0502 2.4197 30.2081 2.52979 30.345 2.66331L31.4075 3.71165C31.5416 3.84511 31.6475 4.00407 31.7192 4.17915C31.8064 4.34642 31.8594 4.52945 31.875 4.71748Z" stroke="#979797"/>
</svg>
