<svg width="34" height="36" viewBox="0 0 34 36" fill="none" xmlns="http://www.w3.org/2000/svg">
<g clip-path="url(#clip0_1_23)">
<path fill-rule="evenodd" clip-rule="evenodd" d="M22.2102 5.2979H32.3306C32.8147 5.31768 33.2027 5.70562 33.2224 6.18973C33.22 6.43048 33.1225 6.6605 32.951 6.82953C32.7899 6.99862 32.564 7.09041 32.3306 7.08157H30.8959V30.5407C30.8959 31.7267 30.4235 32.8639 29.583 33.7007C28.7425 34.5375 27.6033 35.0051 26.4173 34.9999H7.8051C6.62143 35.0015 5.48525 34.5345 4.6449 33.7009C3.81639 32.8556 3.3444 31.7242 3.32653 30.5407V7.08157H1.89184C1.66092 7.07745 1.43979 6.98762 1.27143 6.82953C1.10798 6.65518 1.01178 6.42843 1 6.18973C1.01978 5.70562 1.40772 5.31768 1.89184 5.2979H12.0122C12.327 3.47062 13.595 1.95124 15.3365 1.31469C17.078 0.67814 19.027 1.02166 20.4459 2.21525C21.3913 2.99237 22.019 4.08912 22.2102 5.2979ZM10.849 11.7152V27.8264C10.8514 28.0672 10.9489 28.2972 11.1204 28.4662C11.2815 28.6353 11.5074 28.7271 11.7408 28.7183C11.9792 28.7232 12.2096 28.6324 12.3806 28.4662C12.5384 28.29 12.6279 28.063 12.6326 27.8264V11.7152C12.6324 11.4835 12.542 11.261 12.3806 11.0948C12.2116 10.9234 11.9815 10.8258 11.7408 10.8234C11.2567 10.8432 10.8687 11.2311 10.849 11.7152ZM16.2194 27.8265V11.7152C16.2196 11.4835 16.31 11.261 16.4714 11.0948C16.6394 10.9219 16.8702 10.8243 17.1112 10.8243C17.3523 10.8243 17.5831 10.9219 17.751 11.0948C17.9124 11.261 18.0028 11.4835 18.0031 11.7152V27.8265C17.9983 28.063 17.9089 28.29 17.751 28.4662C17.3921 28.806 16.8303 28.806 16.4714 28.4662C16.3136 28.29 16.2241 28.063 16.2194 27.8265ZM23.1214 28.4662C23.2793 28.29 23.3687 28.063 23.3735 27.8265V11.7152C23.3732 11.4835 23.2828 11.261 23.1214 11.0948C22.9535 10.9219 22.7227 10.8243 22.4816 10.8243C22.2406 10.8243 22.0098 10.9219 21.8418 11.0948C21.6804 11.261 21.59 11.4835 21.5898 11.7152V27.8265C21.5945 28.063 21.684 28.29 21.8418 28.4662C22.2007 28.806 22.7625 28.806 23.1214 28.4662Z" fill="#D8D8D8"/>
<path d="M32.3306 5.2979L32.351 4.79831L32.3408 4.7979H32.3306V5.2979ZM22.2102 5.2979L21.7163 5.37601L21.7831 5.7979H22.2102V5.2979ZM33.2224 6.18973L33.7224 6.19472L33.7225 6.18201L33.722 6.16932L33.2224 6.18973ZM32.951 6.82953L32.6 6.47348L32.5944 6.47898L32.589 6.48465L32.951 6.82953ZM32.3306 7.08157L32.3495 6.58193L32.3401 6.58157H32.3306V7.08157ZM30.8959 7.08157V6.58157H30.3959V7.08157H30.8959ZM26.4173 34.9999L26.4195 34.4999H26.4173V34.9999ZM4.6449 33.7009L4.28778 34.051L4.29277 34.0559L4.6449 33.7009ZM3.32653 30.5407H2.82647L2.82659 30.5483L3.32653 30.5407ZM3.32653 7.08157H3.82653V6.58157H3.32653V7.08157ZM1.89184 7.08157L1.88292 7.58157H1.89184V7.08157ZM1.27143 6.82953L0.906652 7.17149L0.917554 7.18312L0.929176 7.19403L1.27143 6.82953ZM1 6.18973L0.500417 6.16932L0.499496 6.19186L0.500608 6.21439L1 6.18973ZM1.89184 5.2979V4.7979H1.88162L1.87142 4.79831L1.89184 5.2979ZM12.0122 5.2979V5.7979H12.4335L12.505 5.38277L12.0122 5.2979ZM20.4459 2.21525L20.124 2.5979L20.1284 2.6015L20.4459 2.21525ZM10.849 27.8264H10.3489L10.349 27.8314L10.849 27.8264ZM10.849 11.7152L10.3494 11.6948L10.349 11.705V11.7152L10.849 11.7152ZM11.1204 28.4662L11.4824 28.1214L11.477 28.1157L11.4714 28.1102L11.1204 28.4662ZM11.7408 28.7183L11.751 28.2184L11.7365 28.2181L11.7219 28.2186L11.7408 28.7183ZM12.3806 28.4662L12.729 28.8248L12.7415 28.8127L12.753 28.7998L12.3806 28.4662ZM12.6326 27.8264L13.1326 27.8365V27.8264H12.6326ZM12.3806 11.0948L12.7393 10.7465L12.7366 10.7438L12.3806 11.0948ZM11.7408 10.8234L11.7458 10.3234L11.7331 10.3233L11.7204 10.3238L11.7408 10.8234ZM16.2194 27.8265H15.7193L15.7195 27.8365L16.2194 27.8265ZM18.0031 27.8265L18.5031 27.8365V27.8265H18.0031ZM17.751 28.4662L18.0948 28.8293L18.1097 28.8152L18.1235 28.7998L17.751 28.4662ZM16.4714 28.4662L16.099 28.7998L16.1127 28.8152L16.1277 28.8293L16.4714 28.4662ZM23.3735 27.8265L23.8735 27.8365V27.8265H23.3735ZM23.1214 28.4662L23.4652 28.8293L23.4801 28.8152L23.4939 28.7998L23.1214 28.4662ZM21.5898 27.8265H21.0897L21.0899 27.8365L21.5898 27.8265ZM21.8418 28.4662L21.4694 28.7998L21.4831 28.8152L21.4981 28.8293L21.8418 28.4662ZM32.3306 4.7979H22.2102V5.7979H32.3306V4.7979ZM33.722 6.16932C33.6916 5.42509 33.0952 4.82873 32.351 4.79831L32.3102 5.79748C32.5342 5.80663 32.7137 5.98614 32.7229 6.21015L33.722 6.16932ZM33.302 7.18558C33.5676 6.9238 33.7187 6.56757 33.7224 6.19472L32.7225 6.18475C32.7214 6.29339 32.6773 6.39719 32.6 6.47348L33.302 7.18558ZM32.3117 7.58121C32.6883 7.59548 33.053 7.44733 33.313 7.17441L32.589 6.48465C32.5268 6.54991 32.4396 6.58534 32.3495 6.58193L32.3117 7.58121ZM30.8959 7.58157H32.3306V6.58157H30.8959V7.58157ZM31.3959 30.5407V7.08157H30.3959V30.5407H31.3959ZM29.9358 34.055C30.8705 33.1244 31.3959 31.8597 31.3959 30.5407H30.3959C30.3959 31.5938 29.9764 32.6034 29.2302 33.3464L29.9358 34.055ZM26.4152 35.4999C27.7341 35.5056 29.0011 34.9857 29.9358 34.055L29.2302 33.3464C28.484 34.0894 27.4725 34.5045 26.4195 34.4999L26.4152 35.4999ZM7.8051 35.4999H26.4173V34.4999H7.8051V35.4999ZM4.29277 34.0559C5.22695 34.9826 6.48928 35.5017 7.8051 35.4999V34.4999C6.75358 34.5014 5.74355 34.0865 4.99702 33.346L4.29277 34.0559ZM2.82659 30.5483C2.84639 31.86 3.36949 33.1141 4.28778 34.051L5.00198 33.3509C4.26325 32.5972 3.84241 31.5884 3.82647 30.5332L2.82659 30.5483ZM2.82653 7.08157L2.82647 30.5407H3.82653V7.08157H2.82653ZM1.89184 7.58157H3.32653V6.58157H1.89184V7.58157ZM0.929176 7.19403C1.188 7.43706 1.52794 7.57524 1.88292 7.58157L1.90076 6.58165C1.79391 6.57974 1.69159 6.53817 1.61368 6.46503L0.929176 7.19403ZM0.500608 6.21439C0.518237 6.57147 0.662141 6.91067 0.906652 7.17149L1.63621 6.48757C1.55382 6.39968 1.50533 6.28539 1.49939 6.16508L0.500608 6.21439ZM1.87142 4.79831C1.1272 4.82873 0.530831 5.42509 0.500417 6.16932L1.49958 6.21015C1.50874 5.98614 1.68824 5.80663 1.91225 5.79748L1.87142 4.79831ZM12.0122 4.7979H1.89184V5.7979H12.0122V4.7979ZM15.1649 0.845074C13.2552 1.54311 11.8646 3.20925 11.5195 5.21302L12.505 5.38277C12.7893 3.73199 13.9349 2.35937 15.5082 1.7843L15.1649 0.845074ZM20.7678 1.83262C19.2118 0.523735 17.0746 0.147042 15.1649 0.845074L15.5082 1.7843C17.0815 1.20924 18.8422 1.5196 20.124 2.5979L20.7678 1.83262ZM22.7041 5.21978C22.4938 3.89018 21.8033 2.6838 20.7634 1.82899L20.1284 2.6015C20.9793 3.30094 21.5443 4.28806 21.7163 5.37601L22.7041 5.21978ZM11.349 27.8264V11.7152H10.349L10.3489 27.8264H11.349ZM11.4714 28.1102C11.3941 28.0339 11.35 27.9301 11.3489 27.8215L10.349 27.8314C10.3527 28.2043 10.5038 28.5605 10.7693 28.8223L11.4714 28.1102ZM11.7219 28.2186C11.6318 28.222 11.5446 28.1866 11.4824 28.1214L10.7584 28.8111C11.0184 29.084 11.3831 29.2322 11.7597 29.2179L11.7219 28.2186ZM12.0322 28.1076C11.957 28.1806 11.8558 28.2205 11.751 28.2184L11.7305 29.2182C12.1026 29.2258 12.4622 29.0841 12.729 28.8248L12.0322 28.1076ZM12.1327 27.8164C12.1304 27.9333 12.0862 28.0455 12.0081 28.1326L12.753 28.7998C12.9907 28.5345 13.1255 28.1927 13.1326 27.8365L12.1327 27.8164ZM12.1326 11.7152V27.8264H13.1326V11.7152H12.1326ZM12.0219 11.4431C12.0928 11.5162 12.1325 11.6134 12.1326 11.7152H13.1326C13.1323 11.3536 12.9912 11.0059 12.7393 10.7465L12.0219 11.4431ZM11.7358 11.3234C11.8445 11.3244 11.9483 11.3685 12.0245 11.4459L12.7366 10.7438C12.4749 10.4783 12.1186 10.3271 11.7458 10.3234L11.7358 11.3234ZM11.3485 11.7356C11.3577 11.5116 11.5372 11.3321 11.7612 11.323L11.7204 10.3238C10.9762 10.3542 10.3798 10.9506 10.3494 11.6948L11.3485 11.7356ZM15.7194 11.7147L15.7193 27.8265H16.7194V11.7152L15.7194 11.7147ZM16.1127 10.7465C15.8608 11.0059 15.7198 11.3531 15.7194 11.7147L16.7194 11.7152C16.7195 11.6135 16.7592 11.5162 16.8301 11.4432L16.1127 10.7465ZM17.1112 10.3243C16.735 10.3243 16.3748 10.4766 16.1127 10.7465L16.8301 11.4432C16.9039 11.3672 17.0053 11.3243 17.1112 11.3243V10.3243ZM18.1097 10.7465C17.8476 10.4766 17.4874 10.3243 17.1112 10.3243V11.3243C17.2171 11.3243 17.3185 11.3672 17.3923 11.4432L18.1097 10.7465ZM18.5031 11.7152C18.5027 11.3536 18.3616 11.0059 18.1097 10.7465L17.3923 11.4432C17.4632 11.5162 17.503 11.614 17.5031 11.7157L18.5031 11.7152ZM18.5031 27.8265V11.7152L17.5031 11.7157V27.8265H18.5031ZM18.1235 28.7998C18.3611 28.5345 18.4959 28.1927 18.5031 27.8365L17.5032 27.8164C17.5008 27.9333 17.4566 28.0455 17.3786 28.1327L18.1235 28.7998ZM16.1277 28.8293C16.6794 29.3516 17.5431 29.3516 18.0948 28.8293L17.4073 28.1032C17.2412 28.2604 16.9812 28.2604 16.8152 28.1032L16.1277 28.8293ZM15.7195 27.8365C15.7267 28.1927 15.8613 28.5345 16.099 28.7998L16.8439 28.1327C16.7658 28.0455 16.7216 27.9333 16.7193 27.8164L15.7195 27.8365ZM22.8736 27.8164C22.8712 27.9333 22.827 28.0455 22.749 28.1327L23.4939 28.7998C23.7315 28.5345 23.8663 28.1927 23.8735 27.8365L22.8736 27.8164ZM22.8735 11.7152V27.8265H23.8735V11.7152H22.8735ZM22.7627 11.4432C22.8336 11.5162 22.8734 11.6135 22.8735 11.7152H23.8735C23.8731 11.3536 23.732 11.0059 23.4801 10.7465L22.7627 11.4432ZM22.4816 11.3243C22.5875 11.3243 22.6889 11.3672 22.7627 11.4432L23.4801 10.7465C23.218 10.4766 22.8578 10.3243 22.4816 10.3243V11.3243ZM22.2005 11.4432C22.2743 11.3672 22.3757 11.3243 22.4816 11.3243V10.3243C22.1054 10.3243 21.7452 10.4766 21.4831 10.7465L22.2005 11.4432ZM22.0898 11.7157C22.0899 11.614 22.1296 11.5162 22.2005 11.4432L21.4831 10.7465C21.2312 11.0059 21.0902 11.3531 21.0898 11.7147L22.0898 11.7157ZM22.0898 27.8265V11.7157L21.0898 11.7147L21.0897 27.8265H22.0898ZM22.2143 28.1327C22.1362 28.0455 22.092 27.9333 22.0897 27.8164L21.0899 27.8365C21.0971 28.1927 21.2317 28.5345 21.4694 28.7998L22.2143 28.1327ZM22.7777 28.1032C22.6116 28.2604 22.3516 28.2604 22.1856 28.1032L21.4981 28.8293C22.0498 29.3516 22.9135 29.3516 23.4652 28.8293L22.7777 28.1032Z" fill="#979797"/>
</g>
<defs>
<clipPath id="clip0_1_23">
<rect width="34" height="36" fill="white"/>
</clipPath>
</defs>
</svg>
