<?xml version="1.0" encoding="UTF-8"?>
<svg width="59px" height="56px" viewBox="0 0 59 56" version="1.1" xmlns="http://www.w3.org/2000/svg" xmlns:xlink="http://www.w3.org/1999/xlink">
    <title>首页</title>
    <g id="0626" stroke="none" stroke-width="1" fill="none" fill-rule="evenodd">
        <g id="导航-状态" transform="translate(-116, -29)" fill="#393B41" stroke="#F2AD63">
            <g id="首页" transform="translate(117, 30)">
                <path d="M56.4661052,21.2549874 L54.0278528,19.302004 L51.0044198,16.8933245 L41.8365908,9.60218647 L38.2604873,6.60761193 L30.8482,1.00905953 C30.2181959,0.396326608 29.3850061,0.0371541094 28.5074777,9.01129306e-06 C27.6521778,-0.00189414965 26.8235031,0.297714823 26.1667554,0.846310914 L18.9170183,6.60761193 L15.1783646,9.60218647 L6.01053561,16.8933245 L3.01961266,19.2694543 L0.548850235,21.2224377 C0.320997153,21.4226557 0.152333192,21.6815895 0.0611997556,21.9710813 C-0.0203999185,22.2693859 -0.0203999185,22.5841689 0.0611997556,22.8824736 C0.188903705,23.1599833 0.37787816,23.4048371 0.613870299,23.5985675 C0.86617282,23.7619122 1.15875585,23.8520477 1.45913113,23.8589653 C1.80511572,23.8879295 2.14730376,23.7697895 2.40192206,23.533468 L2.98710263,23.0777719 L2.98710263,46.5786721 C2.99158618,47.5595893 3.17902369,48.5310387 3.53977318,49.4430478 C3.93108525,50.3460616 4.49422964,51.1641707 5.19778481,51.8517273 C5.88138701,52.5436392 6.70042911,53.08664 7.60352717,53.4466637 C8.51442413,53.8078536 9.48468892,53.99552 10.46441,54.000009 L46.5180354,54.000009 C47.4977565,53.99552 48.4680213,53.8078536 49.3789182,53.4466637 C51.1981616,52.6977354 52.6474412,51.2583884 53.4101622,49.4430478 C53.7972469,48.5378781 53.9963452,47.5633202 53.9953428,46.5786721 L53.9953428,23.1103216 L54.5155033,23.5660178 C54.8373931,23.8198828 55.2460979,23.9367982 55.6533544,23.891515 C56.2517487,23.8315708 56.7560649,23.4185745 56.9334213,22.8432383 C57.1107776,22.2679021 56.9266661,21.6421686 56.4661052,21.2549874 L56.4661052,21.2549874 Z M37.9317277,38.2746231 C37.9352531,39.5317389 37.4470793,40.7412918 36.5697506,41.6492074 C35.6639241,42.5343731 34.4367022,43.0208851 33.164808,42.9990412 L23.8012157,42.9990412 C22.5286101,43.024742 21.299931,42.5376523 20.3962731,41.6492074 C19.493932,40.7548856 18.9910724,39.5393341 19.0002466,38.2746231 L19.0002466,28.7582952 C18.9872208,27.4928493 19.4906684,26.2758763 20.3962731,25.3837109 C21.3049303,24.4988258 22.5273134,24.0021172 23.8012157,24.000009 L33.2329068,24.000009 C34.5089954,23.9910388 35.7354822,24.489415 36.6378495,25.3837109 C37.5213542,26.2876722 38.0105758,27.4998215 38,28.7582952 L37.9317277,38.2746231 Z" id="Shape"></path>
            </g>
        </g>
    </g>
</svg>