<svg width="84" height="84" viewBox="0 0 84 84" fill="none" xmlns="http://www.w3.org/2000/svg">
<circle cx="42" cy="42" r="42" fill="#F6F6F6"/>
<path d="M55.9967 57.9467L28.0033 57.9467C26.6742 57.9525 25.3977 57.427 24.4579 56.4871C23.518 55.5472 22.9925 54.2708 22.9983 52.9417V36.9517H24.9917V52.9417C25.0035 54.6 26.345 55.9415 28.0033 55.9533L55.9967 55.9533C56.8092 55.9616 57.5905 55.6413 58.1633 55.065C58.7315 54.4868 59.0504 53.7089 59.0517 52.8983V36.9517H61.0017V52.9417C61.0075 54.2708 60.482 55.5472 59.5421 56.4871C58.6023 57.427 57.3258 57.9525 55.9967 57.9467Z" fill="#1D1D1B"/>
<path d="M40.9451 46.5851L40.6357 46.2602L35.2442 40.9089C35.1514 40.8227 35.0763 40.7197 35.0233 40.6056C34.9922 40.4774 34.9922 40.3438 35.0233 40.2156C35.0426 39.9694 35.1525 39.7384 35.3326 39.5657C35.4279 39.4677 35.5401 39.387 35.6641 39.3274C35.922 39.2415 36.2016 39.2415 36.4595 39.3274C36.58 39.3924 36.6915 39.4725 36.791 39.5657L40.9671 43.552V27.9966C40.9671 27.4462 41.4222 27 41.9836 27C42.5449 27 43 27.4462 43 27.9966V43.682L42.7348 46.6068C42.591 46.7494 42.4177 46.8602 42.2266 46.9318C42.0558 46.9868 41.8757 47.0089 41.6963 46.9968C41.4141 46.925 41.1554 46.7832 40.9451 46.5851Z" fill="#E69635"/>
<path d="M43.015 46.5867L43.3183 46.2617L48.605 40.91C48.6961 40.8238 48.7696 40.7208 48.8217 40.6067C48.8521 40.4784 48.8521 40.3449 48.8217 40.2167C48.8027 39.9704 48.6949 39.7394 48.5183 39.5667C48.4249 39.4687 48.3149 39.388 48.1933 39.3283C47.9404 39.2425 47.6662 39.2425 47.4133 39.3283C47.2952 39.3934 47.1859 39.4735 47.0883 39.5667L42.9933 43.5533V27.9967C42.9933 27.4462 42.5471 27 41.9967 27C41.4462 27 41 27.4462 41 27.9967V43.6833L41.26 46.6083C41.4011 46.7509 41.571 46.8617 41.7583 46.9333C41.9258 46.9884 42.1024 47.0105 42.2783 46.9983C42.5551 46.9265 42.8088 46.7848 43.015 46.5867Z" fill="#E69635"/>
</svg>
