<svg width="84" height="84" viewBox="0 0 84 84" fill="none" xmlns="http://www.w3.org/2000/svg">
<circle cx="42" cy="42" r="42" fill="#F6F6F6"/>
<path d="M35.3651 16.8666C37.5382 16.2901 39.7692 16 42.0017 16C45.4922 16 48.8864 16.6866 52.0939 18.044L51.6676 36.8885L35.3651 16.8666V16.8666Z" fill="#F57659"/>
<path d="M19.5323 28.9206C20.6678 26.9692 22.041 25.1837 23.6168 23.615C26.0834 21.1482 28.9677 19.2337 32.1944 17.9233L45.2231 31.548L19.5323 28.9206V28.9206Z" fill="#F0B360"/>
<path d="M16.8665 48.6402C16.2917 46.4758 16 44.2448 16 42C16 38.5061 16.6882 35.1118 18.0439 31.9113L36.8902 32.334L16.8665 48.6402V48.6402Z" fill="#EFDE58"/>
<path d="M28.9205 64.4678C26.983 63.3392 25.2012 61.9661 23.6185 60.3833C21.15 57.9201 19.2353 55.0359 17.9269 51.8058L31.5514 38.7822L28.9205 64.4678V64.4678Z" fill="#BBEF5C"/>
<path d="M42.0017 68.0001C38.5112 68.0001 35.117 67.3135 31.9096 65.9597L32.3358 47.1152L48.6384 67.137C46.4617 67.7101 44.2326 68.0001 42.0017 68.0001V68.0001Z" fill="#61F15E"/>
<path d="M38.7802 52.4539L64.4712 55.0814C63.3443 57.0152 61.9748 58.7972 60.385 60.3833C57.9217 62.8536 55.0341 64.7682 51.8075 66.0785L38.7802 52.4539V52.4539Z" fill="#5BE4EE"/>
<path d="M47.1133 51.6696L67.1352 35.3633C67.71 37.5296 68 39.7622 68 42C68 45.5044 67.3118 48.8954 65.9578 52.0923L47.1133 51.6696V51.6696Z" fill="#5C9BF6"/>
<path d="M55.0795 19.5341C57.0152 20.6575 58.8006 22.0287 60.385 23.615C62.8553 26.0783 64.7698 28.966 66.0766 32.1926L52.452 45.2197L55.0795 19.5341V19.5341Z" fill="#6D58F1"/>
</svg>
