<svg width="85" height="84" viewBox="0 0 85 84" fill="none" xmlns="http://www.w3.org/2000/svg">
<circle cx="42.5" cy="42" r="42" fill="#F6F6F6"/>
<path fill-rule="evenodd" clip-rule="evenodd" d="M53.3844 33.8076C52.8239 33.7584 52.2608 33.7089 51.6976 33.7089L51.7008 33.7121C42.9549 33.7121 36.0587 40.1712 36.0326 48.1179C36.0402 49.4149 36.2294 50.7046 36.5947 51.9493C36.0326 52.0009 35.4702 52.0267 34.8788 52.0267C32.9327 52.0267 31.2973 51.6978 29.4235 51.321L29.4229 51.3208C29.1032 51.2566 28.7767 51.1909 28.4404 51.1252L21.9992 54.3129L23.8515 48.839C19.2626 45.648 16.5 41.5266 16.5 36.5295C16.5 27.8616 24.7875 21.0354 34.9015 21C43.9462 21 51.886 26.4801 53.4688 33.815L53.3844 33.8076ZM44.1054 31.0556C44.1054 29.6711 43.1955 28.7696 41.7981 28.7696C40.4296 28.7696 39.0354 29.6711 39.0354 31.0555C39.0354 32.437 40.4296 33.3418 41.7981 33.3418C43.1955 33.3418 44.1054 32.408 44.1054 31.0556ZM28.9182 33.3418C27.5533 33.3418 26.1559 32.437 26.1559 31.0555C26.1559 29.6711 27.5533 28.7696 28.9182 28.7696C30.2866 28.7696 31.2258 29.6711 31.2258 31.0556C31.2258 32.408 30.3158 33.3418 28.9182 33.3418ZM52.8543 34.691C61.1485 34.691 68.5 40.6445 68.5 47.9278C68.5 52.0202 65.7374 55.6651 62.0324 58.4534L63.4266 63L58.3827 60.2631C56.5333 60.7171 54.6809 61.1678 52.8543 61.1678C44.1086 61.1678 37.2122 55.2369 37.2122 47.9278C37.2122 40.6445 44.1086 34.691 52.8543 34.691ZM47.7844 45.6415C46.8745 45.6415 45.932 44.74 45.932 43.8063C45.932 42.9048 46.8745 41.9711 47.7844 41.9711C49.1818 41.9711 50.092 42.8758 50.092 43.8063C50.092 44.7401 49.1818 45.6416 47.7844 45.6416V45.6415ZM56.0751 43.8063C56.0751 44.74 56.9885 45.6415 57.9017 45.6415V45.6416C59.2959 45.6416 60.2091 44.7401 60.2091 43.8063C60.2091 42.8758 59.2959 41.9711 57.9017 41.9711C56.9852 41.9711 56.0751 42.9048 56.0751 43.8063Z" fill="#09BB07"/>
</svg>
