<svg width="36" height="36" viewBox="0 0 36 36" fill="none" xmlns="http://www.w3.org/2000/svg">
<g clip-path="url(#clip0_1_26)">
<path fill-rule="evenodd" clip-rule="evenodd" d="M35 18C35 27.3888 27.3888 35 18 35C8.61116 35 1 27.3888 1 18C1 8.61116 8.61116 1 18 1C27.3888 1 35 8.61116 35 18ZM18.0096 12.448C19.4256 12.448 20.4336 11.536 20.4336 10.264C20.4336 8.96803 19.4256 8.05603 18.0096 8.05603C16.5696 8.05603 15.5616 8.96803 15.5616 10.264C15.5616 11.536 16.5696 12.448 18.0096 12.448ZM15.8736 28H20.1216V14.344H15.8736V28Z" fill="#D8D8D8" stroke="#979797"/>
</g>
<defs>
<clipPath id="clip0_1_26">
<rect width="36" height="36" fill="white"/>
</clipPath>
</defs>
</svg>
