<?xml version="1.0" encoding="UTF-8"?>
<svg width="74px" height="74px" viewBox="0 0 74 74" version="1.1" xmlns="http://www.w3.org/2000/svg" xmlns:xlink="http://www.w3.org/1999/xlink">
    <title>编组 6</title>
    <g id="0626" stroke="none" stroke-width="1" fill="none" fill-rule="evenodd">
        <g id="1.0-首页" transform="translate(-628, -771)">
            <g id="编组-6" transform="translate(628, 771)">
                <rect id="矩形备份-3" fill="#222426" x="0" y="0" width="74" height="74" rx="37"></rect>
                <rect id="矩形" fill="#F8CC76" x="13" y="13" width="48" height="48" rx="16"></rect>
                <path d="M18.6922963,16.7081211 C19.4764548,16.7081211 20.2606133,17.0072675 20.8589061,17.6055603 C21.6234059,18.3700601 21.8993495,19.4380219 21.6871589,20.4216529 L29.081239,27.8173484 L26.7400802,30.1585072 L19.346457,22.7660197 C18.3615352,22.9800966 17.2913985,22.7044917 16.5256866,21.9387798 C15.9273938,21.340487 15.6282474,20.5563285 15.6282474,19.77217 C15.6282474,18.9880115 15.9273938,18.203853 16.5256866,17.6055603 C17.1239793,17.0072675 17.9081378,16.7081211 18.6922963,16.7081211 Z" id="形状结合" stroke="#222426" fill="#222426"></path>
                <path d="M18.6922963,43.6506555 C19.4764548,43.6506555 20.2606133,43.9498019 20.8589061,44.5480946 C21.6234059,45.3125944 21.8993495,46.3805562 21.6871589,47.3641872 L29.081239,54.7598827 L26.7400802,57.1010415 L19.346457,49.7085541 C18.3615352,49.9226309 17.2913985,49.6470261 16.5256866,48.8813141 C15.9273938,48.2830213 15.6282474,47.4988629 15.6282474,46.7147044 C15.6282474,45.9305459 15.9273938,45.1463874 16.5256866,44.5480946 C17.1239793,43.9498019 17.9081378,43.6506555 18.6922963,43.6506555 Z" id="形状结合备份-3" stroke="#222426" fill="#222426" transform="translate(22.4583, 50.4794) scale(1, -1) translate(-22.4583, -50.4794)"></path>
                <path d="M47.7902334,16.7081211 C48.5743919,16.7081211 49.3585504,17.0072675 49.9568432,17.6055603 C50.721343,18.3700601 50.9972866,19.4380219 50.7850959,20.4216529 L58.1791761,27.8173484 L55.8380173,30.1585072 L48.4443941,22.7660197 C47.4594723,22.9800966 46.3893356,22.7044917 45.6236237,21.9387798 C45.0253309,21.340487 44.7261845,20.5563285 44.7261845,19.77217 C44.7261845,18.9880115 45.0253309,18.203853 45.6236237,17.6055603 C46.2219164,17.0072675 47.0060749,16.7081211 47.7902334,16.7081211 Z" id="形状结合备份" stroke="#222426" fill="#222426" transform="translate(51.5562, 23.5369) scale(-1, 1) translate(-51.5562, -23.5369)"></path>
                <path d="M47.7902334,43.6506555 C48.5743919,43.6506555 49.3585504,43.9498019 49.9568432,44.5480946 C50.721343,45.3125944 50.9972866,46.3805562 50.7850959,47.3641872 L58.1791761,54.7598827 L55.8380173,57.1010415 L48.4443941,49.7085541 C47.4594723,49.9226309 46.3893356,49.6470261 45.6236237,48.8813141 C45.0253309,48.2830213 44.7261845,47.4988629 44.7261845,46.7147044 C44.7261845,45.9305459 45.0253309,45.1463874 45.6236237,44.5480946 C46.2219164,43.9498019 47.0060749,43.6506555 47.7902334,43.6506555 Z" id="形状结合备份-4" stroke="#222426" fill="#222426" transform="translate(51.5562, 50.4794) scale(-1, -1) translate(-51.5562, -50.4794)"></path>
                <rect id="矩形" stroke="#222426" fill="#F2AD63" x="22.4545455" y="23.3636364" width="29.0909091" height="29.0909091" rx="14.5454545"></rect>
                <rect id="矩形" stroke="#222426" fill="#222426" x="30.6363636" y="31.3426094" width="12.7272727" height="12.7272727" rx="6.36363636"></rect>
            </g>
        </g>
    </g>
</svg>