<svg width="30" height="36" viewBox="0 0 30 36" fill="none" xmlns="http://www.w3.org/2000/svg">
<g clip-path="url(#clip0_1_3)">
<g clip-path="url(#clip1_1_3)">
<path fill-rule="evenodd" clip-rule="evenodd" d="M24.2068 12.2314H23.0723V9.30574C23.0751 7.09986 22.1933 4.98497 20.6243 3.43447C18.2379 1.04526 14.6417 0.340223 11.5298 1.65143C8.41787 2.96264 6.41067 6.02863 6.45364 9.40525V12.2314H5.3391C4.17905 12.2512 3.0724 12.7224 2.25419 13.545C1.43764 14.3705 0.986007 15.4888 1.00033 16.6498V30.5816C0.986007 31.7426 1.43764 32.861 2.25419 33.6864C3.0724 34.509 4.17905 34.9802 5.3391 35H24.2068C25.3682 34.9866 26.4771 34.5144 27.2917 33.6864C28.1101 32.8622 28.5621 31.7431 28.5455 30.5816V16.6498C28.5667 15.4875 28.114 14.3666 27.2917 13.545C26.4771 12.717 25.3682 12.2448 24.2068 12.2314ZM18.236 28.1535C17.9973 28.5119 17.6676 28.8004 17.2807 28.9894C16.9014 29.1945 16.4778 29.3038 16.0467 29.3078H13.4196C12.9884 29.3038 12.5648 29.1945 12.1856 28.9894C11.8085 28.7938 11.4868 28.5063 11.2502 28.1535C10.9938 27.7885 10.8361 27.3634 10.7924 26.9195C10.7525 26.4803 10.8138 26.0377 10.9715 25.6259L11.7875 23.6356C11.5095 23.1153 11.3659 22.5338 11.3696 21.9439C11.37 21.4187 11.4926 20.9008 11.7278 20.4313C11.9613 19.9665 12.2943 19.5588 12.7031 19.2371C13.1196 18.9242 13.6035 18.7129 14.1161 18.6201C14.6187 18.4904 15.1461 18.4904 15.6486 18.6201C16.6738 18.8936 17.5128 19.6296 17.9175 20.6104C18.1169 21.0953 18.1987 21.6204 18.1564 22.1429C18.1305 22.6618 17.9803 23.1669 17.7185 23.6157L18.5345 25.606C18.7022 26.0152 18.7638 26.4602 18.7136 26.8996C18.6768 27.3419 18.5259 27.767 18.2758 28.1336L18.236 28.1535ZM8.2847 12.2314H21.2015L21.1418 9.20622C21.1616 8.36076 21.0058 7.52039 20.684 6.7383C20.358 5.99303 19.8918 5.31735 19.3107 4.74804C17.4685 2.89123 14.6871 2.33123 12.2698 3.33044C9.85248 4.32964 8.27825 6.69008 8.2847 9.30573V12.2314Z" fill="#D8D8D8"/>
<path d="M23.0723 12.2314H22.5723V12.7314H23.0723V12.2314ZM24.2068 12.2314L24.2125 11.7314H24.2068V12.2314ZM20.6243 3.43447L20.2705 3.78782L20.2729 3.79011L20.6243 3.43447ZM6.45364 9.40525H6.95368L6.9536 9.39889L6.45364 9.40525ZM6.45364 12.2314V12.7314H6.95364V12.2314H6.45364ZM5.3391 12.2314V11.7313L5.33058 11.7315L5.3391 12.2314ZM2.25419 13.545L1.8997 13.1924L1.89873 13.1934L2.25419 13.545ZM1.00033 16.6498H1.50037L1.50029 16.6436L1.00033 16.6498ZM1.00033 30.5816L1.50033 30.5878V30.5816H1.00033ZM2.25419 33.6864L1.89873 34.0381L1.8997 34.039L2.25419 33.6864ZM5.3391 35L5.33058 35.5H5.3391V35ZM24.2068 35V35.5H24.2125L24.2068 35ZM27.2917 33.6864L26.9369 33.3341L26.9352 33.3358L27.2917 33.6864ZM28.5455 30.5816H28.0455L28.0456 30.5888L28.5455 30.5816ZM28.5455 16.6498L28.0455 16.6407V16.6498H28.5455ZM27.2917 13.545L26.9352 13.8957L26.9383 13.8987L27.2917 13.545ZM17.2807 28.9894L17.0612 28.5401L17.0519 28.5447L17.0429 28.5496L17.2807 28.9894ZM18.236 28.1535L18.0124 27.7063L17.8935 27.7657L17.8198 27.8764L18.236 28.1535ZM16.0467 29.3078V29.8079L16.0514 29.8078L16.0467 29.3078ZM13.4196 29.3078L13.4148 29.8078H13.4196V29.3078ZM12.1856 28.9894L12.4234 28.5495L12.4158 28.5456L12.1856 28.9894ZM11.2502 28.1535L11.6655 27.8749L11.6593 27.8661L11.2502 28.1535ZM10.7924 26.9195L10.2944 26.9648L10.2948 26.9685L10.7924 26.9195ZM10.9715 25.6259L10.5088 25.4361L10.5046 25.447L10.9715 25.6259ZM11.7875 23.6356L12.2502 23.8253L12.3394 23.6075L12.2285 23.4L11.7875 23.6356ZM11.3696 21.9439L11.8696 21.947V21.9443L11.3696 21.9439ZM12.7031 19.2371L12.4026 18.8373L12.3939 18.8442L12.7031 19.2371ZM14.1161 18.6201L14.2052 19.1122L14.2233 19.1089L14.2411 19.1043L14.1161 18.6201ZM15.6486 18.6201L15.7775 18.137L15.7736 18.136L15.6486 18.6201ZM18.1564 22.1429L17.658 22.1025L17.6574 22.1102L17.657 22.118L18.1564 22.1429ZM17.7185 23.6157L17.2866 23.3638L17.1622 23.577L17.2559 23.8054L17.7185 23.6157ZM18.7136 26.8996L18.2169 26.8429L18.216 26.8505L18.2154 26.8581L18.7136 26.8996ZM18.2758 28.1336L18.4994 28.5808L18.6156 28.5227L18.6888 28.4154L18.2758 28.1336ZM21.2015 12.2314V12.7314H21.7115L21.7014 12.2215L21.2015 12.2314ZM8.2847 12.2314H7.7847V12.7314H8.2847V12.2314ZM21.1418 9.20622L20.6419 9.19448L20.6417 9.20528L20.6419 9.21609L21.1418 9.20622ZM20.684 6.7383L21.1465 6.54803L21.1421 6.5379L20.684 6.7383ZM19.3107 4.74804L18.9558 5.10023L18.9608 5.10517L19.3107 4.74804ZM8.2847 9.30573H8.7847V9.3045L8.2847 9.30573ZM23.0723 12.7314H24.2068V11.7314H23.0723V12.7314ZM22.5723 9.3051V12.2314H23.5723V9.30574L22.5723 9.3051ZM20.2729 3.79011C21.7467 5.24653 22.575 7.23308 22.5723 9.3051L23.5723 9.30574C23.5753 6.96601 22.64 4.72342 20.9757 3.07882L20.2729 3.79011ZM11.7239 2.1122C14.6484 0.879985 18.0279 1.54255 20.2705 3.78782L20.9781 3.08112C18.4478 0.547977 14.6351 -0.199541 11.3357 1.19066L11.7239 2.1122ZM6.9536 9.39889C6.91322 6.22569 8.79949 3.34441 11.7239 2.1122L11.3357 1.19066C8.03624 2.58087 5.90812 5.83157 5.95368 9.41161L6.9536 9.39889ZM6.95364 12.2314L6.95368 9.40525H5.95364V12.2314H6.95364ZM5.3391 12.7314H6.45364V11.7314L5.3391 11.7313V12.7314ZM2.60869 13.8976C3.33513 13.1673 4.31767 12.7489 5.34761 12.7313L5.33058 11.7315C4.04043 11.7535 2.80966 12.2775 1.8997 13.1924L2.60869 13.8976ZM1.50029 16.6436C1.48762 15.6164 1.8872 14.627 2.60966 13.8966L1.89873 13.1934C0.988068 14.114 0.484394 15.3612 0.500369 16.656L1.50029 16.6436ZM1.50033 30.5816L1.50037 16.6498H0.500331V30.5816H1.50033ZM2.60966 33.3348C1.8872 32.6045 1.48766 31.615 1.50033 30.5878L0.500369 30.5755C0.484394 31.8703 0.988068 33.1175 1.89873 34.0381L2.60966 33.3348ZM5.34761 34.5001C4.31767 34.4825 3.33513 34.0642 2.60869 33.3338L1.8997 34.039C2.80966 34.9539 4.04043 35.4781 5.33058 35.5L5.34761 34.5001ZM24.2068 34.5H5.3391V35.5H24.2068V34.5ZM26.9352 33.3358C26.2133 34.0696 25.2304 34.4882 24.201 34.5L24.2125 35.5C25.506 35.4851 26.741 34.9592 27.6481 34.0371L26.9352 33.3358ZM28.0456 30.5888C28.0602 31.6157 27.6606 32.6053 26.9369 33.3341L27.6465 34.0387C28.5597 33.1191 29.064 31.8704 29.0455 30.5745L28.0456 30.5888ZM28.0455 16.6498V30.5816H29.0455V16.6498H28.0455ZM26.9383 13.8987C27.6645 14.6243 28.0642 15.6142 28.0455 16.6407L29.0455 16.6589C29.0691 15.3608 28.5635 14.109 27.6451 13.1913L26.9383 13.8987ZM24.201 12.7314C25.2304 12.7432 26.2133 13.1619 26.9352 13.8957L27.6481 13.1943C26.741 12.2722 25.506 11.7463 24.2125 11.7314L24.201 12.7314ZM17.5001 29.4387C17.9667 29.2108 18.3643 28.8629 18.6521 28.4306L17.8198 27.8764C17.6303 28.161 17.3685 28.3901 17.0612 28.5401L17.5001 29.4387ZM16.0514 29.8078C16.564 29.803 17.0676 29.673 17.5185 29.4292L17.0429 28.5496C16.7352 28.7159 16.3917 28.8046 16.042 28.8079L16.0514 29.8078ZM13.4196 29.8078L16.0467 29.8079V28.8078H13.4196V29.8078ZM11.9478 29.4292C12.3987 29.673 12.9023 29.803 13.4148 29.8078L13.4243 28.8079C13.0746 28.8046 12.731 28.7158 12.4234 28.5495L11.9478 29.4292ZM10.8349 28.432C11.1183 28.8546 11.5037 29.1989 11.9554 29.4332L12.4158 28.5456C12.1133 28.3886 11.8553 28.1579 11.6655 27.8749L10.8349 28.432ZM10.2948 26.9685C10.3469 27.4982 10.5351 28.0054 10.841 28.4409L11.6593 27.8661C11.4525 27.5716 11.3252 27.2287 11.29 26.8706L10.2948 26.9685ZM10.5046 25.447C10.3195 25.9302 10.2475 26.4495 10.2944 26.9648L11.2904 26.8743C11.2573 26.5111 11.308 26.1452 11.4384 25.8047L10.5046 25.447ZM11.3249 23.4459L10.5088 25.4361L11.4342 25.8155L12.2502 23.8253L11.3249 23.4459ZM10.8696 21.9407C10.8654 22.6139 11.0293 23.2775 11.3465 23.8712L12.2285 23.4C11.9898 22.9531 11.8664 22.4537 11.8696 21.947L10.8696 21.9407ZM11.281 20.2069C11.011 20.7458 10.87 21.3407 10.8696 21.9435L11.8696 21.9443C11.8699 21.4967 11.9745 21.0554 12.1749 20.6552L11.281 20.2069ZM12.3939 18.8442C11.9274 19.2112 11.5474 19.6764 11.281 20.2069L12.1749 20.6552C12.3755 20.256 12.6611 19.9063 13.0122 19.6301L12.3939 18.8442ZM14.0271 18.1281C13.4378 18.2348 12.8814 18.4775 12.4026 18.8373L13.0034 19.6369C13.3576 19.3707 13.7692 19.191 14.2052 19.1122L14.0271 18.1281ZM15.7736 18.136C15.1891 17.9851 14.5757 17.9851 13.9911 18.136L14.2411 19.1043C14.6617 18.9957 15.103 18.9957 15.5236 19.1043L15.7736 18.136ZM18.38 20.4203C17.9159 19.2954 16.9533 18.4507 15.7775 18.137L15.5198 19.1033C16.3944 19.3365 17.1101 19.9644 17.4553 20.8011L18.38 20.4203ZM18.6547 22.1833C18.7035 21.5822 18.6093 20.9781 18.38 20.4203L17.4553 20.8011C17.6247 21.2131 17.694 21.6586 17.658 22.1025L18.6547 22.1833ZM18.1504 23.8676C18.4525 23.3497 18.6258 22.7667 18.6557 22.1678L17.657 22.118C17.6351 22.5569 17.5081 22.9842 17.2866 23.3638L18.1504 23.8676ZM18.9972 25.4164L18.1811 23.426L17.2559 23.8054L18.0719 25.7956L18.9972 25.4164ZM19.2104 26.9563C19.2701 26.4333 19.1968 25.9036 18.9972 25.4164L18.0719 25.7956C18.2077 26.127 18.2575 26.4872 18.2169 26.8429L19.2104 26.9563ZM18.6888 28.4154C18.9876 27.9775 19.1679 27.4695 19.2119 26.9411L18.2154 26.8581C18.1857 27.2142 18.0642 27.5566 17.8628 27.8518L18.6888 28.4154ZM18.4596 28.6007L18.4994 28.5808L18.0522 27.6864L18.0124 27.7063L18.4596 28.6007ZM21.2015 11.7314H8.2847V12.7314H21.2015V11.7314ZM20.6419 9.21609L20.7016 12.2413L21.7014 12.2215L21.6417 9.19635L20.6419 9.21609ZM20.2216 6.92852C20.517 7.64661 20.6601 8.41821 20.6419 9.19448L21.6416 9.21795C21.6631 8.30331 21.4946 7.39412 21.1465 6.54803L20.2216 6.92852ZM18.9608 5.10517C19.4961 5.62965 19.9256 6.25211 20.2259 6.93869L21.1421 6.5379C20.7904 5.73394 20.2875 5.00505 19.6607 4.3909L18.9608 5.10517ZM12.4608 3.79251C14.6906 2.87079 17.2564 3.3874 18.9558 5.10023L19.6657 4.39587C17.6806 2.3951 14.6835 1.79168 12.0788 2.86836L12.4608 3.79251ZM8.7847 9.3045C8.77875 6.89166 10.2309 4.71424 12.4608 3.79251L12.0788 2.86836C9.47405 3.94504 7.77775 6.4885 7.7847 9.30697L8.7847 9.3045ZM8.7847 12.2314V9.30573H7.7847V12.2314H8.7847Z" fill="#979797"/>
<path d="M16.7632 27.0788C16.6891 27.1906 16.5859 27.2801 16.4647 27.3375C16.3511 27.4094 16.2208 27.4505 16.0865 27.4569H13.4196C13.2943 27.4774 13.1666 27.4774 13.0414 27.4569C12.9298 27.3849 12.8348 27.2899 12.7628 27.1783C12.6876 27.0648 12.6399 26.9353 12.6234 26.8001C12.5852 26.6634 12.5852 26.5189 12.6234 26.3822L13.8375 23.3968L13.4793 22.9788C13.2622 22.6847 13.1437 22.3294 13.1409 21.9638C13.1302 21.5452 13.289 21.1401 13.5813 20.8403C13.8736 20.5405 14.2746 20.3715 14.6933 20.3716C14.8985 20.3688 15.102 20.4095 15.2904 20.491C15.4838 20.568 15.6598 20.683 15.8079 20.8294C15.9454 20.9843 16.0595 21.1587 16.1462 21.3468C16.3654 21.8849 16.282 22.4988 15.9273 22.9589L15.5491 23.3769L16.7632 26.2827C16.7916 26.4205 16.7916 26.5628 16.7632 26.7006C16.7907 26.8252 16.7907 26.9542 16.7632 27.0788Z" fill="#D8D8D8" stroke="#979797"/>
</g>
</g>
<defs>
<clipPath id="clip0_1_3">
<rect width="30" height="36" fill="white"/>
</clipPath>
<clipPath id="clip1_1_3">
<rect width="30" height="36" fill="white"/>
</clipPath>
</defs>
</svg>
