<svg width="24" height="24" viewBox="0 0 24 24" fill="none" xmlns="http://www.w3.org/2000/svg">
<path fill-rule="evenodd" clip-rule="evenodd" d="M11.9999 0C9.86612 0 7.95019 0.635178 6.12661 1.53415V1.53415C6.25937 1.46869 8.4471 0.74935 9.69863 0.612702V0.612702C10.0616 0.573071 10.4758 0.552927 10.8493 0.552927V0.552927C16.412 0.552927 20.863 5.02021 20.863 10.583V10.583C20.863 16.1456 16.3535 20.6551 10.7909 20.6551V20.6551C5.22817 20.6551 0.718745 16.1456 0.718745 10.583V10.583C0.718745 9.69164 0.83465 8.82746 1.05205 8.00452V8.00452C1.19791 7.45243 1.49458 6.32751 1.55041 6.25034V6.25034C1.34741 6.53051 1.15726 6.84123 1.01487 7.16413V7.16413C0.362481 8.64353 0 10.2794 0 12.0001V12.0001C0 18.6274 5.37259 24 11.9999 24V24C18.6274 24 24 18.6274 24 12.0001V12.0001C24 5.37265 18.6274 0 11.9999 0Z" fill="white"/>
<path fill-rule="evenodd" clip-rule="evenodd" d="M2.93872 5.02041C2.93872 6.30531 3.98034 7.34691 5.26525 7.34691V7.34691C6.55017 7.34691 7.59178 6.30531 7.59178 5.02041V5.02041C7.59178 3.73551 6.55017 2.69385 5.26525 2.69385V2.69385C3.98034 2.69385 2.93872 3.73551 2.93872 5.02041" fill="white"/>
</svg>
