<?xml version="1.0" encoding="UTF-8"?>
<svg width="56px" height="56px" viewBox="0 0 56 56" version="1.1" xmlns="http://www.w3.org/2000/svg" xmlns:xlink="http://www.w3.org/1999/xlink">
    <title>Pause-Fill</title>
    <g id="0626" stroke="none" stroke-width="1" fill="none" fill-rule="evenodd">
        <g id="导航-状态" transform="translate(-345, -29)" fill="#F8CC76" stroke="#F2AD63">
            <g id="Pause-Fill" transform="translate(346, 30)">
                <path d="M46.8882554,0 C50.8089572,0.016863467 53.9831365,3.19104283 54,7.11174458 L54,46.8882554 C53.9831365,50.8089572 50.8089572,53.9831365 46.8882554,54 L7.11174458,54 C3.19104283,53.9831365 0.016863467,50.8089572 0,46.8882554 L0,7.11174458 C0.016863467,3.19104283 3.19104283,0.016863467 7.11174458,0 Z M30,29 L25,29 L25,41 C25.1912392,41.5472589 25.4218905,42.016047 25.8881339,42.0100039 L26,42 C26.328412,42.8036445 26.90224,42.9994886 27,43 C28.1206361,42.9947981 28.7138313,42.7833776 29,42 C29.5660315,42.0518082 29.7991492,41.5697305 30,41 L30,29 Z M25,25 L14,25 C13.3651397,25.0054155 12.8828671,25.2242242 13,26 C12.1900215,25.981359 12.0004949,26.4802834 12,27 C12.0024588,27.5318068 12.1909711,28.0435692 13,28 C12.8869905,28.8070089 13.3701009,29.0105415 14,29 L25,29 L25,25 Z M40,25 L30,25 L30,29 L40,29 C40.5928462,29.0099214 41.0556651,28.8302132 41.0138462,28.1362281 L41,28 C41.8090289,28.0435692 41.9975412,27.5318068 42,27 C41.9931791,26.4730577 41.7880018,25.9715134 41,26 C41.0973345,25.2181018 40.624674,24.9969525 40,25 Z M27,12 C26.90224,12.0005114 26.328412,12.1963555 26,13 C25.4576085,12.912296 25.2059499,13.4106443 25,14 L25,25 L30,25 L30,14 C29.8248751,13.4547196 29.6092826,12.9834966 29.1111545,12.9909327 L29,13 C28.7002222,12.1973368 28.1116287,12.0025407 27,12 Z" id="形状结合"></path>
            </g>
        </g>
    </g>
</svg>