<?xml version="1.0" encoding="UTF-8"?>
<svg width="56px" height="56px" viewBox="0 0 56 56" version="1.1" xmlns="http://www.w3.org/2000/svg" xmlns:xlink="http://www.w3.org/1999/xlink">
    <title>Pause-Fill</title>
    <g id="0619" stroke="none" stroke-width="1" fill="none" fill-rule="evenodd">
        <g id="1.0-首页" transform="translate(-345, -1493)" fill="#393B41" stroke="#F2AD63">
            <g id="编组-7" transform="translate(0, 1464)">
                <g id="Pause-Fill" transform="translate(346, 30)">
                    <path d="M46.8882554,0 C50.8089572,0.016863467 53.9831365,3.19104283 54,7.11174458 L54,46.8882554 C53.9831365,50.8089572 50.8089572,53.9831365 46.8882554,54 L7.11174458,54 C3.19104283,53.9831365 0.016863467,50.8089572 0,46.8882554 L0,7.11174458 C0.016863467,3.19104283 3.19104283,0.016863467 7.11174458,0 Z M28.929,28.477 L25.649,28.477 L25.6492041,37.5663957 C25.6530672,37.9050183 25.7909297,38.23043 26.0365319,38.4885203 L26.1483098,38.5948509 C26.4539436,38.8543169 26.8630877,38.9996206 27.2891228,39 C27.731814,38.9961405 28.154767,38.8392801 28.4655862,38.5636856 C28.7623927,38.2965029 28.9286074,37.9388323 28.9290415,37.5663957 L28.929,28.477 Z M25.649,25.684 L17.3712737,25.6842105 C17.0011024,25.6879933 16.6474359,25.840834 16.3875339,26.1093662 C16.1393491,26.3697022 16.0003629,26.7182073 16,27.0811 C16.0018031,27.4527097 16.1400454,27.8101823 16.3875339,28.0832005 C16.6504597,28.3434547 17.0047407,28.4856247 17.3712737,28.4779673 L25.649,28.477 L25.649,25.684 Z M36.6287263,25.6842105 L28.929,25.684 L28.929,28.477 L36.6287263,28.4779673 C36.9494427,28.4846676 37.2607786,28.3766561 37.5097412,28.1751986 L37.6124661,28.0832005 C37.8599546,27.8101823 37.9981969,27.4527097 38,27.0811 C37.994998,26.7131601 37.8445347,26.362825 37.5826558,26.1093662 C37.3380453,25.8365574 36.9914276,25.6820818 36.6287263,25.6842105 Z M27.2891228,16 C26.8630877,16.0003794 26.4539436,16.1456831 26.1483098,16.4051491 C25.8330536,16.6768648 25.653619,17.0466071 25.6492041,17.4336043 L25.649,25.684 L28.929,25.684 L28.9290415,17.4336043 C28.9369076,17.0983099 28.8101024,16.7728224 28.5735918,16.5125433 L28.4655862,16.4051491 C28.1450635,16.1464112 27.7253917,16.0018851 27.2891228,16 Z" id="形状结合"></path>
                </g>
            </g>
        </g>
    </g>
</svg>