<svg width="36" height="36" viewBox="0 0 36 36" fill="none" xmlns="http://www.w3.org/2000/svg">
<g clip-path="url(#clip0_1_7)">
<path fill-rule="evenodd" clip-rule="evenodd" d="M30.6476 14.255H32.3846C33.0785 14.3095 33.7265 14.623 34.1998 15.1333C34.7064 15.6576 34.9927 16.3561 35 17.0851V19.193C34.9958 19.9264 34.701 20.6283 34.1803 21.1448C33.6622 21.6656 32.9629 21.9663 32.2285 21.984H30.4329C30.1843 22.7354 29.8776 23.4662 29.5156 24.17L30.8818 25.5362C31.3918 26.0582 31.6788 26.7582 31.682 27.488C31.6709 28.2162 31.385 28.9133 30.8818 29.4397L29.3594 30.9231C28.833 31.4263 28.1359 31.7121 27.4077 31.7233C26.6802 31.7083 25.9844 31.4231 25.4559 30.9231L24.1677 29.6349C23.4622 30.0023 22.7238 30.3029 21.9622 30.5327V32.3283C21.9607 32.6967 21.8878 33.0612 21.7476 33.4018C21.4783 34.1062 20.9261 34.6655 20.2252 34.9437C19.8846 35.084 19.5201 35.1569 19.1517 35.1584H16.9853C16.6108 35.1551 16.2402 35.0823 15.8923 34.9437C15.5428 34.7889 15.2251 34.5705 14.9554 34.2996C14.6963 34.0284 14.491 33.7105 14.3504 33.3628C14.2165 33.0074 14.1503 32.63 14.1552 32.2503V30.4546C13.4062 30.2247 12.6808 29.9241 11.9888 29.5568L10.6616 30.8645C10.1396 31.3745 9.43961 31.6615 8.70981 31.6647C7.98041 31.6595 7.2812 31.3728 6.75805 30.8645L5.27471 29.4202C4.76597 28.8957 4.47331 28.1989 4.45497 27.4685C4.4592 26.735 4.75398 26.0332 5.27471 25.5167L6.52384 24.1895C6.15988 23.4891 5.85941 22.7575 5.62603 22.0035H3.81089C3.44275 22.0001 3.07857 21.9273 2.73742 21.7888C2.39332 21.6523 2.08104 21.4464 1.8201 21.1838C1.56158 20.9195 1.35618 20.6081 1.21505 20.2665C1.06741 19.9282 0.994197 19.5621 1.00036 19.193V17.0851C0.989845 16.3347 1.28194 15.6118 1.81074 15.0793C2.33953 14.5468 3.06048 14.2497 3.81089 14.255H5.7041C5.94065 13.4992 6.24778 12.7674 6.62142 12.0691L5.27471 10.7419C4.98387 10.4733 4.75136 10.1478 4.5916 9.78552C4.46286 9.45582 4.39667 9.10503 4.39642 8.75109C4.38847 8.36292 4.46159 7.97737 4.61111 7.61907C4.76788 7.26008 4.99331 6.93521 5.27471 6.66271L6.77757 5.17937C7.30815 4.68253 8.00267 4.39777 8.72932 4.37915C9.09642 4.37396 9.46102 4.44025 9.80279 4.57432C10.1469 4.71082 10.4592 4.91679 10.7201 5.17937L12.0473 6.48705C12.7461 6.11969 13.478 5.81909 14.2333 5.58924V3.7741C14.264 2.26388 15.4753 1.04396 16.9853 1.0026H19.1517C20.7079 0.936403 22.0251 2.14017 22.0989 3.69603V5.64779C22.8484 5.8844 23.5738 6.19155 24.2653 6.56512L25.5535 5.25744C26.6648 4.26343 28.3457 4.26343 29.457 5.25744L30.9403 6.72126C31.2029 6.98221 31.4089 7.29448 31.5454 7.63859C31.6857 7.97917 31.7586 8.34372 31.7601 8.71205C31.7566 9.08019 31.6838 9.44438 31.5454 9.78552C31.4213 10.1342 31.2363 10.458 30.9989 10.7419L29.6522 12.0691C30.0588 12.7613 30.3924 13.4939 30.6476 14.255ZM14.8578 21.7108C15.7472 22.5143 16.8993 22.9654 18.0978 22.9794C19.2763 22.9531 20.4059 22.5026 21.2791 21.7108C22.1629 20.9112 22.7191 19.8126 22.8405 18.627C23.1159 16.2022 21.543 13.9516 19.1712 13.3768C18.8466 13.3478 18.52 13.3478 18.1954 13.3768C17.8642 13.3477 17.5311 13.3477 17.2 13.3768C14.734 13.8495 13.0389 16.1294 13.2964 18.627C13.4178 19.8126 13.9741 20.9112 14.8578 21.7108Z" fill="#D8D8D8"/>
<path d="M32.3846 14.255L32.4238 13.7566L32.4042 13.755H32.3846V14.255ZM30.6476 14.255L30.1735 14.414L30.2879 14.755H30.6476V14.255ZM34.1998 15.1333L33.8331 15.4734L33.8402 15.4808L34.1998 15.1333ZM35 17.0851H35.5V17.0801L35 17.0851ZM35 19.193L35.5 19.1959V19.193H35ZM34.1803 21.1448L33.8281 20.7898L33.8257 20.7922L34.1803 21.1448ZM32.2285 21.984V22.4842L32.2405 22.4839L32.2285 21.984ZM30.4329 21.984V21.484H30.0716L29.9582 21.827L30.4329 21.984ZM29.5156 24.17L29.0709 23.9412L28.9041 24.2656L29.162 24.5235L29.5156 24.17ZM30.8818 25.5362L31.2394 25.1868L31.2353 25.1827L30.8818 25.5362ZM31.682 27.488L32.182 27.4956V27.4858L31.682 27.488ZM30.8818 29.4397L31.2307 29.7978L31.2371 29.7917L31.2432 29.7852L30.8818 29.4397ZM29.3594 30.9231L29.7049 31.2845L29.7083 31.2812L29.3594 30.9231ZM27.4077 31.7233L27.3974 32.2232L27.4064 32.2234L27.4153 32.2232L27.4077 31.7233ZM25.4559 30.9231L25.1022 31.2768L25.1123 31.2863L25.4559 30.9231ZM24.1677 29.6349L24.5213 29.2814L24.262 29.0221L23.9368 29.1914L24.1677 29.6349ZM21.9622 30.5327L21.8178 30.054L21.4622 30.1613V30.5327H21.9622ZM21.9622 32.3283L22.4622 32.3304V32.3283H21.9622ZM21.7476 33.4018L21.2851 33.2113L21.2805 33.2233L21.7476 33.4018ZM20.2252 34.9437L20.0407 34.4789L20.0348 34.4814L20.2252 34.9437ZM19.1517 35.1584V35.6584H19.1538L19.1517 35.1584ZM16.9853 35.1584L16.9809 35.6584H16.9853V35.1584ZM15.8923 34.9437L15.6898 35.4009L15.6985 35.4047L15.7072 35.4082L15.8923 34.9437ZM14.9554 34.2996L14.5938 34.6451L14.6011 34.6524L14.9554 34.2996ZM14.3504 33.3628L13.8823 33.5391L13.8869 33.5502L14.3504 33.3628ZM14.1552 32.2503L14.6552 32.2567V32.2503H14.1552ZM14.1552 30.4546H14.6552V30.0851L14.3019 29.9767L14.1552 30.4546ZM11.9888 29.5568L12.2232 29.1152L11.8991 28.9432L11.6378 29.2007L11.9888 29.5568ZM10.6616 30.8645L11.011 31.2222L11.0125 31.2207L10.6616 30.8645ZM8.70981 31.6647L8.70621 32.1648L8.71201 32.1647L8.70981 31.6647ZM5.27471 29.4202L4.91581 29.7683L4.92078 29.7735L4.9259 29.7785L5.27471 29.4202ZM4.45497 27.4685L3.95498 27.4656L3.95494 27.4733L3.95513 27.481L4.45497 27.4685ZM5.27471 25.5167L5.62682 25.8717L5.63292 25.8656L5.63881 25.8594L5.27471 25.5167ZM6.52384 24.1895L6.88794 24.5322L7.13112 24.2738L6.96751 23.9589L6.52384 24.1895ZM5.62603 22.0035L6.10367 21.8557L5.99467 21.5035H5.62603L5.62603 22.0035ZM3.81089 22.0035L3.80623 22.5035H3.81089V22.0035ZM2.73742 21.7888L2.92542 21.3255L2.92179 21.3241L2.73742 21.7888ZM1.8201 21.1838L1.46269 21.5335L1.46544 21.5362L1.8201 21.1838ZM1.21505 20.2665L1.67727 20.0756L1.67332 20.0665L1.21505 20.2665ZM1.00036 19.193L1.50036 19.2013V19.193H1.00036ZM1.00036 17.0851H1.50041L1.50031 17.0781L1.00036 17.0851ZM3.81089 14.255L3.80735 14.755H3.81089V14.255ZM5.7041 14.255L5.7041 14.755H6.07153L6.18127 14.4044L5.7041 14.255ZM6.62142 12.0691L7.06228 12.305L7.23865 11.9754L6.97239 11.713L6.62142 12.0691ZM5.27471 10.7419L5.62567 10.3858L5.6199 10.3801L5.61395 10.3746L5.27471 10.7419ZM4.5916 9.78552L4.12584 9.96738L4.12976 9.97743L4.13412 9.98729L4.5916 9.78552ZM4.39642 8.75109L4.89652 8.75073L4.89631 8.74085L4.39642 8.75109ZM4.61111 7.61907L4.15284 7.41894L4.14968 7.42651L4.61111 7.61907ZM5.27471 6.66271L5.62255 7.02191L5.62595 7.01856L5.27471 6.66271ZM6.77757 5.17937L6.43569 4.81428L6.42633 4.82351L6.77757 5.17937ZM8.72932 4.37915L8.72226 3.87916L8.71651 3.87931L8.72932 4.37915ZM9.80279 4.57432L9.98716 4.10955L9.98538 4.10886L9.80279 4.57432ZM10.7201 5.17937L10.3654 5.53184L10.3692 5.53553L10.7201 5.17937ZM12.0473 6.48705L11.6964 6.84321L11.9566 7.09961L12.28 6.92962L12.0473 6.48705ZM14.2333 5.58924L14.3789 6.06758L14.7333 5.95972V5.58924L14.2333 5.58924ZM14.2333 3.7741L13.7333 3.76394V3.7741L14.2333 3.7741ZM16.9853 1.0026V0.502417L16.9716 0.502792L16.9853 1.0026ZM19.1517 1.0026V1.5026H19.1623L19.173 1.50215L19.1517 1.0026ZM22.0989 3.69603L22.5989 3.69603V3.68418L22.5983 3.67235L22.0989 3.69603ZM22.0989 5.64779L21.5989 5.64779V6.01427L21.9484 6.1246L22.0989 5.64779ZM24.2653 6.56512L24.0277 7.00503L24.358 7.18349L24.6215 6.916L24.2653 6.56512ZM25.5535 5.25744L25.2202 4.88476L25.2084 4.8953L25.1973 4.90655L25.5535 5.25744ZM29.457 5.25744L29.8082 4.90155L29.7995 4.89294L29.7903 4.88476L29.457 5.25744ZM30.9403 6.72126L31.2928 6.3666L31.2915 6.36537L30.9403 6.72126ZM31.5454 7.63859L31.0806 7.82296L31.0831 7.82899L31.5454 7.63859ZM31.7601 8.71205L32.2601 8.71672V8.71L31.7601 8.71205ZM31.5454 9.78552L31.0821 9.59752L31.078 9.60763L31.0743 9.6179L31.5454 9.78552ZM30.9989 10.7419L31.3499 11.098L31.367 11.0811L31.3825 11.0626L30.9989 10.7419ZM29.6522 12.0691L29.3012 11.713L29.0237 11.9864L29.221 12.3223L29.6522 12.0691ZM18.0978 22.9794L18.0919 23.4794L18.1004 23.4795L18.1089 23.4793L18.0978 22.9794ZM22.8405 18.627L22.3437 18.5706L22.3431 18.5761L22.8405 18.627ZM19.1712 13.3768L19.289 12.8908L19.2528 12.8821L19.2157 12.8787L19.1712 13.3768ZM18.1954 13.3768L18.1517 13.8748L18.1958 13.8787L18.2398 13.8748L18.1954 13.3768ZM17.2 13.3768L17.1563 12.8787L17.1309 12.8809L17.1058 12.8857L17.2 13.3768ZM32.3846 13.755H30.6476V14.755H32.3846V13.755ZM34.5664 14.7933C34.0077 14.191 33.2428 13.8209 32.4238 13.7566L32.3455 14.7535C32.9142 14.7982 33.4452 15.0551 33.8331 15.4734L34.5664 14.7933ZM35.5 17.0801C35.4915 16.2232 35.1548 15.4022 34.5593 14.7859L33.8402 15.4808C34.2579 15.9131 34.494 16.489 34.5 17.0901L35.5 17.0801ZM35.5 19.193V17.0851H34.5V19.193H35.5ZM34.5324 21.4998C35.147 20.8901 35.495 20.0616 35.5 19.1959L34.5 19.1901C34.4965 19.7912 34.2548 20.3664 33.8281 20.7898L34.5324 21.4998ZM32.2405 22.4839C33.1039 22.4631 33.9258 22.1096 34.5348 21.4974L33.8257 20.7922C33.3986 21.2217 32.822 21.4696 32.2165 21.4842L32.2405 22.4839ZM30.4329 22.484L32.2285 22.4842V21.484H30.4329V22.484ZM29.9602 24.3987C30.3341 23.6719 30.6509 22.9171 30.9076 22.1411L29.9582 21.827C29.7178 22.5537 29.4211 23.2606 29.0709 23.9412L29.9602 24.3987ZM31.2353 25.1827L29.8691 23.8164L29.162 24.5235L30.5282 25.8898L31.2353 25.1827ZM32.182 27.4858C32.1782 26.6261 31.8402 25.8017 31.2394 25.1868L30.5242 25.8856C30.9434 26.3148 31.1794 26.8902 31.182 27.4902L32.182 27.4858ZM31.2432 29.7852C31.8336 29.1677 32.1689 28.3499 32.182 27.4956L31.1821 27.4803C31.1728 28.0825 30.9365 28.6589 30.5204 29.0942L31.2432 29.7852ZM29.7083 31.2812L31.2307 29.7978L30.5329 29.0816L29.0105 30.565L29.7083 31.2812ZM27.4153 32.2232C28.2696 32.2101 29.0873 31.8749 29.7049 31.2845L29.0139 30.5616C28.5786 30.9778 28.0021 31.2141 27.4 31.2234L27.4153 32.2232ZM25.1123 31.2863C25.7311 31.8717 26.5457 32.2057 27.3974 32.2232L27.4179 31.2234C26.8147 31.211 26.2378 30.9744 25.7995 30.5598L25.1123 31.2863ZM23.8142 29.9885L25.1022 31.2768L25.8095 30.5695L24.5213 29.2814L23.8142 29.9885ZM22.1067 31.0114C22.8981 30.7726 23.6655 30.4602 24.3987 30.0784L23.9368 29.1914C23.2589 29.5445 22.5495 29.8333 21.8178 30.054L22.1067 31.0114ZM22.4622 32.3283V30.5327H21.4622V32.3283H22.4622ZM22.2099 33.5922C22.3748 33.1919 22.4605 32.7634 22.4622 32.3304L21.4623 32.3263C21.461 32.63 21.4008 32.9305 21.2851 33.2113L22.2099 33.5922ZM20.4096 35.4084C21.2407 35.0786 21.8954 34.4155 22.2146 33.5803L21.2805 33.2233C21.0613 33.7969 20.6116 34.2523 20.0407 34.4789L20.4096 35.4084ZM19.1538 35.6584C19.5867 35.6566 20.0153 35.5709 20.4156 35.406L20.0348 34.4814C19.754 34.597 19.4534 34.6571 19.1497 34.6584L19.1538 35.6584ZM16.9853 35.6584H19.1517V34.6584H16.9853V35.6584ZM15.7072 35.4082C16.1126 35.5697 16.5445 35.6545 16.9809 35.6584L16.9897 34.6584C16.6771 34.6557 16.3677 34.5949 16.0773 34.4792L15.7072 35.4082ZM14.6011 34.6524C14.9145 34.9672 15.2837 35.221 15.6898 35.4009L16.0947 34.4865C15.8019 34.3568 15.5357 34.1738 15.3098 33.9469L14.6011 34.6524ZM13.8869 33.5502C14.0512 33.9566 14.291 34.3281 14.5938 34.6451L15.317 33.9542C15.1016 33.7287 14.9309 33.4644 14.8139 33.1753L13.8869 33.5502ZM13.6553 32.2438C13.6496 32.6859 13.7264 33.1253 13.8823 33.5391L14.8183 33.1865C14.7064 32.8895 14.6511 32.5741 14.6552 32.2567L13.6553 32.2438ZM13.6552 30.4546V32.2503H14.6552V30.4546H13.6552ZM11.7544 29.9985C12.4744 30.3806 13.2292 30.6934 14.0085 30.9326L14.3019 29.9767C13.5833 29.7561 12.8872 29.4676 12.2232 29.1152L11.7544 29.9985ZM11.0125 31.2207L12.3397 29.913L11.6378 29.2007L10.3106 30.5084L11.0125 31.2207ZM8.71201 32.1647C9.57165 32.1609 10.3961 31.8229 11.011 31.2222L10.3121 30.5069C9.883 30.9262 9.30758 31.1621 8.7076 31.1647L8.71201 32.1647ZM6.40924 31.2228C7.02482 31.8209 7.84794 32.1586 8.70621 32.1648L8.71341 31.1648C8.11287 31.1604 7.5372 30.9244 7.10647 30.5059L6.40924 31.2228ZM4.9259 29.7785L6.40924 31.2228L7.10647 30.5059L5.62352 29.062L4.9259 29.7785ZM3.95513 27.481C3.97663 28.3371 4.3196 29.1537 4.91581 29.7683L5.63361 29.0721C5.21234 28.6378 4.97 28.0608 4.95481 27.4559L3.95513 27.481ZM4.92261 25.1617C4.30793 25.7714 3.95997 26.5998 3.95498 27.4656L4.95496 27.4713C4.95843 26.8702 5.20003 26.295 5.62682 25.8717L4.92261 25.1617ZM6.15974 23.8468L4.91061 25.174L5.63881 25.8594L6.88794 24.5322L6.15974 23.8468ZM5.14838 22.1514C5.39059 22.9339 5.70244 23.6932 6.08017 24.4201L6.96751 23.9589C6.61732 23.2851 6.32822 22.5812 6.10367 21.8557L5.14838 22.1514ZM3.81089 22.5035H5.62603V21.5035H3.81089V22.5035ZM2.54943 22.2521C2.94883 22.4142 3.37522 22.4995 3.80623 22.5035L3.81555 21.5036C3.51029 21.5007 3.2083 21.4403 2.92542 21.3255L2.54943 22.2521ZM1.46544 21.5362C1.77483 21.8476 2.14508 22.0918 2.55306 22.2536L2.92179 21.3241C2.64156 21.2129 2.38726 21.0452 2.17475 20.8313L1.46544 21.5362ZM0.752921 20.4573C0.918475 20.8582 1.15942 21.2235 1.46269 21.5335L2.1775 20.8341C1.96373 20.6156 1.79397 20.3581 1.67727 20.0756L0.752921 20.4573ZM0.500429 19.1847C0.49307 19.6253 0.580497 20.0625 0.756789 20.4665L1.67332 20.0665C1.55433 19.7938 1.49539 19.4988 1.50036 19.2013L0.500429 19.1847ZM0.500359 17.0851V19.193H1.50036L1.50041 17.0851H0.500359ZM1.45596 14.727C0.832434 15.3548 0.48801 16.2073 0.500408 17.0921L1.50031 17.0781C1.49168 16.4622 1.73145 15.8687 2.16551 15.4316L1.45596 14.727ZM3.81444 13.7551C2.92959 13.7488 2.07949 14.0991 1.45596 14.727L2.16551 15.4316C2.59958 14.9945 3.19137 14.7507 3.80735 14.755L3.81444 13.7551ZM5.7041 13.755H3.81089V14.755H5.7041V13.755ZM6.18057 11.8332C5.79213 12.5591 5.47284 13.32 5.22692 14.1057L6.18127 14.4044C6.40846 13.6785 6.70343 12.9756 7.06228 12.305L6.18057 11.8332ZM4.92375 11.098L6.27046 12.4252L6.97239 11.713L5.62567 10.3858L4.92375 11.098ZM4.13412 9.98729C4.32153 10.4122 4.5943 10.7941 4.93547 11.1092L5.61395 10.3746C5.37345 10.1525 5.18118 9.88328 5.04908 9.58375L4.13412 9.98729ZM3.89642 8.75144C3.89672 9.16749 3.97452 9.57983 4.12584 9.96738L5.05735 9.60366C4.9512 9.33181 4.89673 9.04257 4.89652 8.75073L3.89642 8.75144ZM4.14968 7.42651C3.97337 7.849 3.88715 8.30362 3.89652 8.76133L4.89631 8.74085C4.88979 8.42222 4.94981 8.10574 5.07255 7.81163L4.14968 7.42651ZM4.92689 6.30351C4.59867 6.62134 4.33568 7.00024 4.15284 7.41894L5.06933 7.81917C5.20002 7.5199 5.38795 7.24908 5.62255 7.02191L4.92689 6.30351ZM6.42633 4.82351L4.92348 6.30685L5.62595 7.01856L7.1288 5.53523L6.42633 4.82351ZM8.71651 3.87931C7.86739 3.90108 7.05569 4.2337 6.43569 4.81428L7.11932 5.54434C7.56048 5.13123 8.13795 4.89447 8.74214 4.87898L8.71651 3.87931ZM9.98538 4.10886C9.58323 3.9511 9.15421 3.87306 8.72226 3.87916L8.73639 4.8791C9.03862 4.87483 9.33881 4.92941 9.6202 5.03979L9.98538 4.10886ZM11.0748 4.82692C10.7654 4.5156 10.3951 4.27139 9.98716 4.10955L9.61843 5.03909C9.89865 5.15025 10.1529 5.31801 10.3654 5.53184L11.0748 4.82692ZM12.3982 6.13088L11.071 4.82321L10.3692 5.53553L11.6964 6.84321L12.3982 6.13088ZM14.0877 5.1109C13.3024 5.3499 12.5413 5.66248 11.8147 6.04448L12.28 6.92962C12.9509 6.57689 13.6537 6.28827 14.3789 6.06758L14.0877 5.1109ZM13.7333 3.7741V5.58924H14.7333V3.7741H13.7333ZM16.9716 0.502792C15.1948 0.551457 13.7694 1.98691 13.7333 3.76394L14.7332 3.78426C14.7584 2.54086 15.7558 1.53647 16.999 1.50242L16.9716 0.502792ZM19.1517 0.502605L16.9853 0.502417V1.5026H19.1517V0.502605ZM22.5983 3.67235C22.5115 1.8416 20.9616 0.425159 19.1305 0.503057L19.173 1.50215C20.4542 1.44765 21.5387 2.43874 21.5994 3.71972L22.5983 3.67235ZM22.5989 5.64779V3.69603H21.5989V5.64779H22.5989ZM24.503 6.1252C23.7836 5.73661 23.0291 5.41711 22.2494 5.17098L21.9484 6.1246C22.6677 6.35169 23.364 6.64649 24.0277 7.00503L24.503 6.1252ZM25.1973 4.90655L23.9091 6.21423L24.6215 6.916L25.9097 5.60832L25.1973 4.90655ZM29.7903 4.88476C28.4892 3.72099 26.5213 3.72099 25.2202 4.88476L25.8868 5.63012C26.8084 4.80587 28.2021 4.80587 29.1237 5.63012L29.7903 4.88476ZM31.2915 6.36537L29.8082 4.90155L29.1058 5.61333L30.5891 7.07715L31.2915 6.36537ZM32.0102 7.45422C31.8483 7.04624 31.6041 6.67599 31.2928 6.3666L30.5879 7.07591C30.8017 7.28842 30.9695 7.54273 31.0806 7.82296L32.0102 7.45422ZM32.2601 8.71C32.2583 8.27703 32.1726 7.84852 32.0077 7.44818L31.0831 7.82899C31.1987 8.10982 31.2588 8.4104 31.2601 8.71411L32.2601 8.71ZM32.0087 9.97351C32.1708 9.57411 32.256 9.14773 32.2601 8.71672L31.2601 8.70739C31.2573 9.01266 31.1969 9.31465 31.0821 9.59752L32.0087 9.97351ZM31.3825 11.0626C31.6579 10.7333 31.8725 10.3576 32.0165 9.95314L31.0743 9.6179C30.9701 9.91073 30.8147 10.1827 30.6153 10.4211L31.3825 11.0626ZM30.0031 12.4252L31.3499 11.098L30.6479 10.3858L29.3012 11.713L30.0031 12.4252ZM31.1216 14.0961C30.8554 13.3021 30.5074 12.5379 30.0833 11.8158L29.221 12.3223C29.6101 12.9847 29.9293 13.6857 30.1735 14.414L31.1216 14.0961ZM18.1036 22.4794C17.027 22.4669 15.992 22.0616 15.1931 21.3398L14.5224 22.0815C15.5022 22.9667 16.7716 23.464 18.0919 23.4794L18.1036 22.4794ZM20.9437 21.34C20.1595 22.051 19.1449 22.4559 18.0866 22.4795L18.1089 23.4793C19.4078 23.4503 20.6526 22.9539 21.615 22.0812L20.9437 21.34ZM22.3431 18.5761C22.2343 19.6387 21.7358 20.6233 20.9437 21.34L21.615 22.0812C22.5904 21.1987 23.204 19.9865 23.3379 18.6779L22.3431 18.5761ZM19.0535 13.8627C21.1802 14.3782 22.5906 16.3962 22.3437 18.5706L23.3373 18.6834C23.6411 16.0081 21.9058 13.525 19.289 12.8908L19.0535 13.8627ZM18.2398 13.8748C18.5349 13.8484 18.8317 13.8484 19.1268 13.8748L19.2157 12.8787C18.8615 12.8471 18.5051 12.8471 18.1509 12.8787L18.2398 13.8748ZM17.2436 13.8748C17.5457 13.8484 17.8496 13.8484 18.1517 13.8748L18.239 12.8787C17.8788 12.8471 17.5165 12.8471 17.1563 12.8787L17.2436 13.8748ZM13.7938 18.5761C13.5629 16.3365 15.0829 14.2917 17.2941 13.8678L17.1058 12.8857C14.3851 13.4073 12.515 15.9226 12.7991 18.6783L13.7938 18.5761ZM15.1931 21.3398C14.401 20.6231 13.9026 19.6387 13.7938 18.5761L12.7991 18.6783C12.9331 19.9869 13.547 21.199 14.5224 22.0815L15.1931 21.3398Z" fill="#979797"/>
</g>
<defs>
<clipPath id="clip0_1_7">
<rect width="36" height="36" fill="white"/>
</clipPath>
</defs>
</svg>
