<svg width="34" height="36" viewBox="0 0 34 36" fill="none" xmlns="http://www.w3.org/2000/svg">
<path d="M34 11.5789V31.4993C33.9788 33.9836 31.9833 35.9893 29.5223 36H4.4779C3.29211 36.0052 2.15312 35.5333 1.31282 34.6887C0.472519 33.8441 0.000139836 32.6963 0.000151044 31.4993V11.5789C-0.00964845 10.3711 0.457739 9.20919 1.29889 8.3502C1.71206 7.9222 2.20653 7.58277 2.7527 7.35223C3.30087 7.12688 3.88607 7.00741 4.4779 7H7.15291V8.81984H4.4779C3.75341 8.80493 3.05393 9.08738 2.53948 9.60256C2.02578 10.1211 1.7395 10.826 1.74473 11.5594V31.4993C1.7395 32.2327 2.02578 32.9375 2.53948 33.4561C3.05393 33.9713 3.75341 34.2537 4.4779 34.2388H29.5223C30.2467 34.2537 30.9462 33.9713 31.4607 33.4561C31.9744 32.9375 32.2606 32.2327 32.2554 31.4993V11.5202C32.2606 10.7869 31.9744 10.082 31.4607 9.56342C30.9462 9.04824 30.2467 8.7658 29.5223 8.7807H26.8472V7H29.5223C30.1153 7.01408 30.7004 7.14019 31.2474 7.37179C31.7927 7.59511 32.2873 7.92799 32.7013 8.3502C33.1157 8.77871 33.4447 9.28358 33.6705 9.83738C33.8858 10.3924 33.9975 10.9829 34 11.5789V11.5789Z" fill="#1D1D1B"/>
<path d="M22.74 6.71023C22.6624 6.79459 22.5671 6.8597 22.4613 6.9006C22.3569 6.92027 22.2499 6.92027 22.1456 6.9006C21.9189 6.89592 21.7014 6.80811 21.5326 6.65312L17.8176 2.84574V17.1234C17.8153 17.3598 17.7218 17.5856 17.5576 17.7516C17.3983 17.9101 17.1851 17.9989 16.9632 17.9991C16.7334 18.0101 16.5098 17.9213 16.3472 17.7547C16.1846 17.588 16.098 17.3588 16.1087 17.1234V2.90285L12.3938 6.71023C12.3213 6.80057 12.2244 6.86683 12.1151 6.9006C12.0057 6.93138 11.8902 6.93138 11.7808 6.9006C11.6773 6.92886 11.5685 6.92886 11.465 6.9006C11.3558 6.86683 11.2588 6.80057 11.1864 6.71023C11.0619 6.555 10.9959 6.35906 11.0006 6.15816C10.9916 5.92331 11.0792 5.69535 11.2421 5.52994L16.3874 0.256728C16.4806 0.146742 16.6033 0.0672958 16.7403 0.028286C16.8487 -0.00942866 16.9662 -0.00942866 17.0746 0.028286C17.1603 0.00922452 17.249 0.00922452 17.3347 0.028286C17.4416 0.0758678 17.5369 0.147424 17.6133 0.237692L22.7585 5.49187C22.9098 5.66492 22.9954 5.88781 23 6.12008C22.9961 6.34507 22.9021 6.55851 22.74 6.71023V6.71023Z" fill="#1D1D1B"/>
</svg>
