<svg width="36" height="36" viewBox="0 0 36 36" fill="none" xmlns="http://www.w3.org/2000/svg">
<g clip-path="url(#clip0_1_11)">
<path d="M23.319 7.26106C23.3349 9.80908 21.7928 12.1109 19.4231 13.0763C18.2676 13.5381 17.0031 13.6592 15.7804 13.4252C13.2788 12.9334 11.3229 10.9878 10.8278 8.49868C10.3326 6.00958 11.3961 3.46921 13.5207 2.06612C14.5718 1.37234 15.8047 1.00158 17.066 1C18.7336 1.00193 20.3318 1.66457 21.5074 2.84149C22.1105 3.41679 22.588 4.10966 22.9099 4.87682C23.1998 5.63781 23.3387 6.44748 23.319 7.26106Z" fill="#D8D8D8" stroke="#979797"/>
<path fill-rule="evenodd" clip-rule="evenodd" d="M24.8518 34.9997C22.7047 33.3555 21.5068 30.7239 21.7108 27.9869C21.8808 25.9986 22.765 24.1395 24.1994 22.7542C24.9792 22.0477 25.8819 21.5066 26.8534 21.1517C24.1126 19.1378 20.7341 17.9658 17.1245 17.9658C9.33997 17.9658 2.63048 23.4169 1.0732 31.0066C0.975588 31.4798 0.975588 31.9678 1.0732 32.441C1.18704 32.9105 1.40688 33.348 1.71603 33.7204C2.38932 34.5391 3.39956 35.0097 4.46267 34.9997H24.8518Z" fill="#D8D8D8"/>
<path d="M21.7108 27.9869L21.2126 27.9443L21.2122 27.9497L21.7108 27.9869ZM24.8518 34.9997L24.8518 35.4997H26.3271L25.1558 34.6027L24.8518 34.9997ZM24.1994 22.7542L23.8637 22.3836L23.8578 22.389L23.852 22.3945L24.1994 22.7542ZM26.8534 21.1517L27.025 21.6213L27.9013 21.3012L27.1495 20.7487L26.8534 21.1517ZM1.0732 32.441L0.583518 32.542L0.585257 32.5505L0.587285 32.5588L1.0732 32.441ZM1.71603 33.7204L2.10223 33.4028L2.10071 33.4009L1.71603 33.7204ZM4.46267 34.9997V34.4997H4.45798L4.46267 34.9997ZM21.2122 27.9497C20.9955 30.856 22.2675 33.6505 24.5478 35.3967L25.1558 34.6027C23.1419 33.0605 22.018 30.5918 22.2094 28.024L21.2122 27.9497ZM23.852 22.3945C22.3306 23.8639 21.3929 25.8357 21.2126 27.9443L22.209 28.0294C22.3687 26.1616 23.1993 24.4151 24.5467 23.1138L23.852 22.3945ZM26.6818 20.682C25.6503 21.0589 24.6917 21.6335 23.8637 22.3836L24.5351 23.1247C25.2667 22.4619 26.1136 21.9543 27.025 21.6213L26.6818 20.682ZM17.1245 18.4658C20.6247 18.4658 23.9 19.6021 26.5574 21.5546L27.1495 20.7487C24.3252 18.6736 20.8435 17.4658 17.1245 17.4658V18.4658ZM1.56289 31.1076C3.07212 23.7521 9.57572 18.4658 17.1245 18.4658V17.4658C9.10423 17.4658 2.18873 23.0822 0.583411 30.9061L1.56289 31.1076ZM1.56289 32.34C1.47902 31.9334 1.47902 31.5142 1.56289 31.1076L0.583411 30.9061C0.472044 31.4459 0.472151 32.0022 0.583518 32.542L1.56289 32.34ZM2.10071 33.4009C1.84013 33.0871 1.65498 32.7185 1.55913 32.3232L0.587285 32.5588C0.719098 33.1025 0.973625 33.6089 1.33136 34.0398L2.10071 33.4009ZM4.45798 34.4997C3.54552 34.5083 2.67916 34.1044 2.10223 33.4028L1.32984 34.0379C2.09947 34.9739 3.2536 35.5111 4.46735 35.4997L4.45798 34.4997ZM24.8518 34.4997H4.46267V35.4997H24.8518V34.4997Z" fill="#979797"/>
<path fill-rule="evenodd" clip-rule="evenodd" d="M29.8209 23C30.3582 23.0264 30.8875 23.1421 31.3872 23.3426L31.4553 23.3084C32.7353 23.803 33.7897 24.7542 34.4176 25.9808C35.0323 27.2178 35.1659 28.6413 34.7922 29.9722C34.4319 31.3064 33.5795 32.4521 32.4087 33.1757C30.644 34.2692 28.4191 34.2752 26.6487 33.1911C24.8782 32.1071 23.8611 30.116 24.0154 28.0364C24.1317 26.6695 24.7365 25.3914 25.7179 24.439C26.735 23.513 28.0577 23.0002 29.4293 23H29.8209ZM30.0845 32.0914C30.1703 31.9656 30.2122 31.8149 30.2035 31.6629L30.0607 29.2825H32.441C32.5439 29.2926 32.6475 29.2719 32.7386 29.223C32.8257 29.1693 32.8991 29.0959 32.9528 29.0088C33.0368 28.9601 33.1065 28.8904 33.1552 28.8064C33.204 28.7153 33.2248 28.6118 33.2147 28.5089C33.221 28.4083 33.2089 28.3075 33.179 28.2113C33.1194 28.129 33.047 28.0567 32.9647 27.9971L32.8576 27.6757C32.7614 27.6458 32.6606 27.6337 32.5601 27.64H30.1797L30.2749 25.3548C30.278 25.1456 30.1962 24.944 30.0482 24.796C29.9002 24.648 29.6986 24.5663 29.4894 24.5693C29.2848 24.5601 29.0858 24.6379 28.9419 24.7836C28.7923 24.9307 28.7104 25.1332 28.7157 25.3429V27.7233H26.3353C26.2329 27.7203 26.1311 27.7406 26.0378 27.7829C25.9535 27.8401 25.8808 27.9128 25.8235 27.9971C25.7533 28.1002 25.7084 28.2185 25.6926 28.3422C25.6504 28.4356 25.63 28.5374 25.6331 28.6398C25.6394 28.8402 25.72 29.0311 25.8593 29.1754C26.0104 29.3221 26.2085 29.4107 26.4186 29.4253L28.7038 29.3301V31.7105C28.7068 31.9116 28.7879 32.1037 28.93 32.2461C29.0372 32.3519 29.1743 32.4225 29.3227 32.4484C29.4699 32.4786 29.6227 32.4662 29.7631 32.4127C29.8922 32.3301 30.0018 32.2205 30.0845 32.0914Z" fill="#D8D8D8"/>
<path d="M31.3872 23.3426L31.201 23.8067L31.4104 23.8907L31.6119 23.7893L31.3872 23.3426ZM29.8209 23L29.8454 22.5006L29.8331 22.5H29.8209V23ZM31.4553 23.3084L31.6355 22.842L31.4286 22.762L31.2306 22.8617L31.4553 23.3084ZM34.4176 25.9808L34.8654 25.7582L34.8627 25.7529L34.4176 25.9808ZM34.7922 29.9722L34.3108 29.837L34.3095 29.8419L34.7922 29.9722ZM24.0154 28.0364L23.5171 27.9941L23.5167 27.9995L24.0154 28.0364ZM25.7179 24.439L25.3813 24.0693L25.3754 24.0746L25.3696 24.0802L25.7179 24.439ZM30.2035 31.6629L30.7027 31.6344L30.7026 31.633L30.2035 31.6629ZM30.0845 32.0914L29.6715 31.8095L29.6673 31.8156L29.6634 31.8218L30.0845 32.0914ZM30.0607 29.2825V28.7825H29.5298L29.5615 29.3124L30.0607 29.2825ZM32.441 29.2825L32.4898 28.7849L32.4655 28.7825H32.441V29.2825ZM32.7386 29.223L32.975 29.6636L32.9882 29.6565L33.001 29.6486L32.7386 29.223ZM32.9528 29.0088L32.7023 28.5761L32.5933 28.6392L32.5272 28.7463L32.9528 29.0088ZM33.1552 28.8064L33.5879 29.057L33.5919 29.05L33.5958 29.0428L33.1552 28.8064ZM33.2147 28.5089L32.7157 28.4773L32.7131 28.5175L32.7171 28.5576L33.2147 28.5089ZM33.179 28.2113L33.6563 28.0626L33.632 27.9844L33.5839 27.918L33.179 28.2113ZM32.9647 27.9971L32.4904 28.1552L32.5412 28.3077L32.6714 28.402L32.9647 27.9971ZM32.8576 27.6757L33.332 27.5176L33.251 27.2746L33.0064 27.1984L32.8576 27.6757ZM32.5601 27.64V28.14H32.5759L32.5917 28.139L32.5601 27.64ZM30.1797 27.64L29.6801 27.6192L29.6584 28.14H30.1797V27.64ZM30.2749 25.3548L30.7746 25.3757L30.7748 25.3622L30.2749 25.3548ZM29.4894 24.5693L29.4667 25.0688L29.4817 25.0695L29.4967 25.0693L29.4894 24.5693ZM28.9419 24.7836L29.2925 25.1401L29.2975 25.135L28.9419 24.7836ZM28.7157 25.3429H29.2159L29.2156 25.3302L28.7157 25.3429ZM28.7157 27.7233V28.2233H29.2157V27.7233H28.7157ZM26.3353 27.7233L26.3204 28.2231L26.3279 28.2233H26.3353V27.7233ZM26.0378 27.7829L25.8318 27.3273L25.7925 27.345L25.7568 27.3693L26.0378 27.7829ZM25.6926 28.3422L26.1482 28.5483L26.1791 28.48L26.1886 28.4056L25.6926 28.3422ZM25.8593 29.1754L25.4994 29.5226L25.5051 29.5284L25.5109 29.5341L25.8593 29.1754ZM26.4186 29.4253L26.3838 29.9241L26.4116 29.9261L26.4395 29.9249L26.4186 29.4253ZM28.7038 29.3301H29.2038V28.8088L28.683 28.8305L28.7038 29.3301ZM28.7038 31.7105H28.2038L28.2039 31.7178L28.7038 31.7105ZM28.93 32.2461L28.576 32.5993L28.5788 32.6021L28.93 32.2461ZM29.3227 32.4484L29.4231 31.9586L29.4159 31.9571L29.4087 31.9559L29.3227 32.4484ZM29.7631 32.4127L29.9411 32.88L29.9893 32.8616L30.0327 32.8338L29.7631 32.4127ZM31.5733 22.8786C31.0221 22.6574 30.4382 22.5297 29.8454 22.5006L29.7964 23.4994C30.2782 23.523 30.7528 23.6268 31.201 23.8067L31.5733 22.8786ZM31.2306 22.8617L31.1625 22.896L31.6119 23.7893L31.68 23.755L31.2306 22.8617ZM34.8627 25.7529C34.1791 24.4175 33.0306 23.3811 31.6355 22.842L31.275 23.7747C32.44 24.2249 33.4004 25.0909 33.9725 26.2086L34.8627 25.7529ZM35.2735 30.1074C35.6808 28.6573 35.5353 27.1063 34.8654 25.7582L33.9698 26.2033C34.5294 27.3293 34.6511 28.6251 34.3108 29.837L35.2735 30.1074ZM32.6715 33.601C33.9509 32.8103 34.8816 31.5589 35.2749 30.1026L34.3095 29.8419C33.9822 31.0539 33.208 32.0939 32.1458 32.7504L32.6715 33.601ZM26.3876 33.6175C28.3191 34.8002 30.7463 34.794 32.6715 33.601L32.1458 32.7504C30.5417 33.7444 28.5191 33.7501 26.9098 32.7647L26.3876 33.6175ZM23.5167 27.9995C23.3487 30.2647 24.4565 32.4351 26.3876 33.6175L26.9098 32.7647C25.3 31.779 24.3735 29.9673 24.514 28.0734L23.5167 27.9995ZM25.3696 24.0802C24.3015 25.1169 23.6435 26.5075 23.5171 27.9941L24.5136 28.0788C24.6197 26.8316 25.1716 25.666 26.0661 24.7978L25.3696 24.0802ZM29.4293 22.5C27.9328 22.5002 26.4901 23.0597 25.3813 24.0693L26.0545 24.8087C26.9798 23.9663 28.1826 23.5002 29.4294 23.5L29.4293 22.5ZM29.8209 22.5H29.4293L29.4294 23.5H29.8209V22.5ZM29.7043 31.6914C29.7067 31.7333 29.6952 31.7748 29.6715 31.8095L30.4974 32.3733C30.6455 32.1564 30.7176 31.8966 30.7027 31.6344L29.7043 31.6914ZM29.5615 29.3124L29.7044 31.6928L30.7026 31.633L30.5598 29.2526L29.5615 29.3124ZM32.441 28.7825H30.0607V29.7825H32.441V28.7825ZM32.5022 28.7824C32.4984 28.7844 32.4941 28.7853 32.4898 28.7849L32.3923 29.7801C32.5938 29.7999 32.7966 29.7593 32.975 29.6636L32.5022 28.7824ZM32.5272 28.7463C32.5144 28.7671 32.4969 28.7846 32.4762 28.7974L33.001 29.6486C33.1545 29.5539 33.2838 29.4247 33.3784 29.2712L32.5272 28.7463ZM32.7225 28.5559C32.7176 28.5642 32.7107 28.5712 32.7023 28.5761L33.2034 29.4414C33.3629 29.3491 33.4955 29.2165 33.5879 29.057L32.7225 28.5559ZM32.7171 28.5576C32.7175 28.5619 32.7166 28.5662 32.7146 28.57L33.5958 29.0428C33.6915 28.8644 33.732 28.6616 33.7123 28.4601L32.7171 28.5576ZM32.7016 28.3601C32.7134 28.398 32.7182 28.4377 32.7157 28.4773L33.7137 28.5405C33.7239 28.379 33.7045 28.217 33.6563 28.0626L32.7016 28.3601ZM32.6714 28.402C32.7109 28.4306 32.7455 28.4652 32.774 28.5046L33.5839 27.918C33.4932 27.7928 33.3832 27.6828 33.258 27.5921L32.6714 28.402ZM32.3833 27.8339L32.4904 28.1552L33.4391 27.839L33.332 27.5176L32.3833 27.8339ZM32.5917 28.139C32.6313 28.1365 32.671 28.1413 32.7088 28.1531L33.0064 27.1984C32.8519 27.1502 32.6899 27.1308 32.5285 27.141L32.5917 28.139ZM30.1797 28.14H32.5601V27.14H30.1797V28.14ZM29.7753 25.334L29.6801 27.6192L30.6792 27.6608L30.7746 25.3757L29.7753 25.334ZM29.6946 25.1496C29.7471 25.202 29.776 25.2734 29.7749 25.3475L30.7748 25.3622C30.7799 25.0178 30.6453 24.686 30.4017 24.4425L29.6946 25.1496ZM29.4967 25.0693C29.5708 25.0682 29.6422 25.0971 29.6946 25.1496L30.4017 24.4425C30.1582 24.1989 29.8264 24.0643 29.482 24.0694L29.4967 25.0693ZM29.2975 25.135C29.342 25.09 29.4035 25.0659 29.4667 25.0688L29.512 24.0698C29.166 24.0542 28.8297 24.1858 28.5863 24.4321L29.2975 25.135ZM29.2156 25.3302C29.2137 25.2589 29.2417 25.1901 29.2925 25.1401L28.5913 24.427C28.343 24.6712 28.207 25.0075 28.2159 25.3557L29.2156 25.3302ZM29.2157 27.7233L29.2159 25.3429H28.2157V27.7233H29.2157ZM26.3353 28.2233H28.7157V27.2233H26.3353V28.2233ZM26.2438 28.2384C26.2678 28.2276 26.294 28.2223 26.3204 28.2231L26.3503 27.2236C26.1718 27.2182 25.9945 27.2537 25.8318 27.3273L26.2438 28.2384ZM26.2368 28.2786C26.2586 28.2465 26.2866 28.2183 26.3188 28.1964L25.7568 27.3693C25.6203 27.462 25.5027 27.5797 25.41 27.7161L26.2368 28.2786ZM26.1886 28.4056C26.1944 28.3601 26.2109 28.3165 26.2368 28.2786L25.41 27.7161C25.2954 27.8844 25.2225 28.0769 25.1967 28.2789L26.1886 28.4056ZM26.1329 28.6248C26.1321 28.5985 26.1373 28.5723 26.1482 28.5483L25.237 28.1362C25.1635 28.2989 25.128 28.4763 25.1333 28.6547L26.1329 28.6248ZM26.2191 28.8282C26.166 28.7732 26.1353 28.7011 26.1329 28.6248L25.1333 28.6547C25.1435 28.9792 25.2741 29.289 25.4994 29.5226L26.2191 28.8282ZM26.4534 28.9265C26.3611 28.9201 26.274 28.8812 26.2076 28.8167L25.5109 29.5341C25.7467 29.7631 26.0559 29.9012 26.3838 29.9241L26.4534 28.9265ZM28.683 28.8305L26.3978 28.9258L26.4395 29.9249L28.7246 29.8297L28.683 28.8305ZM29.2038 31.7105V29.3301H28.2038V31.7105H29.2038ZM29.2839 31.8929C29.2335 31.8425 29.2048 31.7744 29.2038 31.7032L28.2039 31.7178C28.2087 32.0488 28.3422 32.365 28.576 32.5993L29.2839 31.8929ZM29.4087 31.9559C29.3605 31.9475 29.316 31.9245 29.2811 31.8901L28.5788 32.6021C28.7585 32.7793 28.9881 32.8976 29.2368 32.941L29.4087 31.9559ZM29.5851 31.9455C29.5335 31.9651 29.4773 31.9697 29.4231 31.9586L29.2224 32.9383C29.4626 32.9875 29.7119 32.9673 29.9411 32.88L29.5851 31.9455ZM29.6634 31.8218C29.6197 31.89 29.5617 31.948 29.4935 31.9916L30.0327 32.8338C30.2226 32.7122 30.384 32.5509 30.5056 32.361L29.6634 31.8218Z" fill="#979797"/>
</g>
<defs>
<clipPath id="clip0_1_11">
<rect width="36" height="36" fill="white"/>
</clipPath>
</defs>
</svg>
