<?xml version="1.0" encoding="UTF-8"?>
<svg width="55px" height="56px" viewBox="0 0 55 56" version="1.1" xmlns="http://www.w3.org/2000/svg" xmlns:xlink="http://www.w3.org/1999/xlink">
    <title>User-Fill备份</title>
    <g id="0626" stroke="none" stroke-width="1" fill="none" fill-rule="evenodd">
        <g id="导航-状态" transform="translate(-577, -233)" fill="#F8CC76" stroke="#F2AD63">
            <g id="编组-7备份-2" transform="translate(0, 204)">
                <g id="User-Fill备份" transform="translate(578, 30)">
                    <path d="M34.9970927,9.98465751 C35.0223643,14.0480455 32.5770935,17.7188376 28.8195029,19.2583332 C26.9874176,19.9947544 24.9822624,20.1879158 23.0434563,19.8147538 C19.0768688,19.0304337 15.9754923,15.9277398 15.1903537,11.9583154 C14.4052151,7.98889096 16.091579,3.9377076 19.4604542,1.70017388 C21.1270817,0.593784994 23.0821076,0.00251559622 25.082061,0 C27.7262765,0.00308112114 30.2604242,1.0598068 32.1245134,2.93666397 C33.0808612,3.85411506 33.8379314,4.95904452 34.3484458,6.18245047 C34.8080245,7.39602671 35.0282993,8.68722274 34.9970927,9.98465751 L34.9970927,9.98465751 Z" id="Path" fill-rule="nonzero"></path>
                    <path d="M51.5560477,51.9719131 C51.0128628,52.6153588 50.3229724,53.1304409 49.5395871,53.4774315 C48.7556314,53.8201885 47.9044566,53.998268 47.0430169,54 L5.6895714,54 C3.94276081,54.015547 2.28282554,53.269688 1.17654058,51.9719131 C0.668559393,51.3817635 0.307336434,50.688264 0.120299328,49.9440721 C-0.0400997761,49.1940124 -0.0400997761,48.4204918 0.120299328,47.6704321 C2.67907843,35.6403328 13.703538,27 26.4943234,27 C39.2851087,27 50.3095683,35.6403328 52.8683474,47.6704321 C53.0438842,48.4293125 53.0438842,49.2159165 52.8683474,49.9747969 C52.6029853,50.73139 52.1530475,51.4161253 51.5560477,51.9719131 L51.5560477,51.9719131 Z" id="Path"></path>
                </g>
            </g>
        </g>
    </g>
</svg>