<svg width="43" height="36" viewBox="0 0 43 36" fill="none" xmlns="http://www.w3.org/2000/svg">
<g id="weixin">
<path id="&#229;&#189;&#162;&#231;&#138;&#182;" fill-rule="evenodd" clip-rule="evenodd" d="M0 13.2729C0 15.3103 0.66506 17.4886 1.71006 19.3725V19.3728C2.76153 21.2676 4.20086 22.8682 5.73676 23.732C5.62352 24.1752 5.4204 24.7262 5.21077 25.2949L5.21076 25.2949L5.2097 25.2978C4.79279 26.4291 4.3492 27.6329 4.49642 28.3025C4.59466 28.7506 4.9136 28.9752 5.58168 28.8319C6.3537 28.6663 7.06423 28.2077 7.79519 27.7357C8.91993 27.0095 10.0982 26.2488 11.5726 26.559C12.5058 26.7551 13.4846 26.9161 14.4749 26.9693C15.4211 27.0205 16.3785 26.9742 17.3176 26.7684C17.8031 28.6178 19.4677 30.5001 21.5762 31.9321C23.7497 33.4085 26.4028 34.4126 28.7242 34.4126C29.0712 34.4126 29.3028 34.415 29.5112 34.4171C30.6673 34.4293 31.2216 34.4349 32.659 34.0807C32.8864 34.0248 33.0518 33.9797 33.1897 33.942L33.2059 33.9376C33.8512 33.7611 33.8737 33.7553 34.6393 34.1531C34.9524 34.3158 35.2384 34.4647 35.5072 34.6124C35.7952 34.7701 36.0782 34.9362 36.3561 35.1106V35.1103L36.5447 35.2297L36.5463 35.2308L36.5464 35.2308C37.1155 35.5929 37.632 35.9215 38.4583 35.9916L38.5565 36L38.6028 35.9108C39.098 34.957 38.921 34.4787 38.5695 33.529L38.5691 33.528C38.3947 33.0573 38.1746 32.4632 37.9753 31.6184C38.495 31.2487 39.1416 30.6574 39.7449 30.0202C40.3724 29.3581 40.956 28.643 41.305 28.0722C42.3678 26.3329 42.9288 24.7005 42.9936 23.0507C43.0585 21.4006 42.6276 19.7382 41.7086 17.9374C41.347 17.2289 40.9169 16.6179 40.4327 16.0528C39.9502 15.4901 39.4174 14.9765 38.8459 14.4582C38.032 13.7201 37.0655 13.0931 36.0248 12.5932C34.9374 12.0708 33.7669 11.6857 32.6026 11.457C32.2598 11.3898 31.9963 11.3619 31.7883 11.3401C31.2181 11.2804 31.1227 11.2702 30.816 10.3358C30.3182 8.81455 29.6963 7.497 28.85 6.32263C28.0022 5.14684 26.9301 4.11504 25.532 3.1678C22.2788 0.961808 18.6211 -0.102755 15.0034 0.00780487C11.432 0.116675 7.89967 1.37146 4.83417 3.80257C3.49636 4.86309 2.25547 6.43648 1.36718 8.17556C0.527379 9.81972 0 11.6164 0 13.2729ZM7.48033 24.6144L7.47937 24.617C7.36351 24.9323 7.24718 25.2489 7.1881 25.7062C7.68737 25.5537 8.12988 25.2964 8.56798 25.0417L8.56963 25.0408C9.43499 24.5371 10.2874 24.0416 11.5664 24.2948C12.5879 24.4973 13.341 24.6379 14.1389 24.7275C14.8828 24.8111 15.6695 24.8506 16.7553 24.8553C16.4781 24.1538 16.3784 23.3146 16.3978 22.4606C16.4236 21.3141 16.6642 20.1342 16.9736 19.2237C17.8003 16.7955 18.8366 15.8495 20.3989 14.4238L20.4851 14.345C20.6778 14.1694 20.7902 14.0677 20.9102 13.972L20.91 13.9717C21.025 13.8795 21.1502 13.791 21.3704 13.6388C22.4554 12.8891 23.5925 12.3081 24.8367 11.915C26.0291 11.5382 27.32 11.3331 28.7563 11.3165C28.5524 10.4929 28.2561 9.71992 27.8818 9.00126C26.504 6.35335 24.0598 4.43058 21.2137 3.33619C18.3614 2.23993 15.1065 1.97463 12.1128 2.64358C11.0028 2.89151 9.9289 3.2684 8.92582 3.7783C6.76764 4.87544 5.13476 6.29205 4.02639 7.87944C2.96344 9.40145 2.38106 11.083 2.27796 12.7917C2.17505 14.5009 2.55063 16.2406 3.40289 17.8783C4.31322 19.628 5.76856 21.2632 7.76406 22.6243L7.83072 22.6699V22.7509C7.83081 23.6596 7.65584 24.1362 7.48074 24.6133L7.48033 24.6144ZM36.1329 32.2684L36.1326 32.2674C35.9994 31.8758 35.8839 31.536 35.8839 30.8754C35.8839 30.3777 36.0293 30.2731 36.4105 30.0002C36.6405 29.8355 36.9703 29.5988 37.4247 29.1333C38.7128 27.8154 39.4935 26.9215 39.9478 25.8993C40.4008 24.8795 40.5363 23.714 40.5363 21.8491C40.5363 19.725 39.1992 17.6174 37.1643 16.0413C35.1304 14.4668 32.4028 13.4254 29.6106 13.4254C26.6675 13.4254 24.2805 14.32 22.5115 15.7123C21.0143 16.8912 19.9573 18.4279 19.3793 20.0808C18.8016 21.7329 18.7011 23.5006 19.1147 25.143C19.5487 26.8662 20.5508 28.4541 22.1618 29.6268C23.5915 30.6679 25.2788 31.4447 27.0707 31.8437C28.7506 32.2182 30.5241 32.2609 32.2651 31.879C34.4463 31.4009 34.6534 31.5992 35.0665 31.9972L35.0666 31.9973C35.2733 32.1962 35.5409 32.4537 36.266 32.6854C36.2219 32.5302 36.1765 32.3961 36.1329 32.2684ZM18.4926 10.8431C18.1516 10.4577 17.922 9.91979 17.922 9.25488C17.922 8.87141 18.2058 8.46118 18.5999 8.14893C18.9939 7.83694 19.505 7.61551 19.9505 7.61551C21.0022 7.61551 21.6591 8.10532 21.9462 8.73791C22.0603 8.98864 22.1153 9.26293 22.1131 9.5381V9.53868C22.1108 9.8157 22.0511 10.0893 21.9375 10.3426C21.6383 11.0083 20.9642 11.5344 19.9505 11.5344C19.4367 11.5344 18.8888 11.2915 18.4926 10.8431ZM8.27795 9.25492C8.27795 9.92006 8.50783 10.4577 8.84859 10.8434C9.24477 11.2918 9.79288 11.5344 10.3067 11.5344C11.3054 11.5344 11.9716 11.0064 12.267 10.3394C12.379 10.0859 12.4379 9.81258 12.4402 9.53597C12.4424 9.26141 12.3882 8.98704 12.2758 8.73605C11.9928 8.10398 11.3457 7.61556 10.3067 7.61556C9.86094 7.61556 9.34984 7.83699 8.95609 8.14897C8.56176 8.46123 8.27795 8.87146 8.27795 9.25492ZM27.1055 21.9566C26.8693 22.4544 26.3434 22.836 25.5128 22.836C24.6687 22.836 24.1617 22.4541 23.9415 21.9553L24.0704 21.8961L23.9415 21.9548C23.8509 21.7492 23.8101 21.5233 23.8152 21.2969C23.8203 21.0718 23.8718 20.845 23.9637 20.6376C24.2069 20.09 24.7366 19.6584 25.4839 19.6705C26.3133 19.6835 26.8619 20.1121 27.1055 20.6485C27.1993 20.8552 27.2481 21.0792 27.2487 21.3058C27.2492 21.5299 27.2018 21.7535 27.1055 21.9566ZM31.4516 21.1964C31.4516 22.0225 31.853 22.5129 32.3825 22.7238C32.5967 22.809 32.8331 22.8472 33.071 22.8424C33.3072 22.8375 33.5462 22.7899 33.7675 22.7046C34.382 22.4674 34.8786 21.9368 34.8786 21.1964C34.8786 20.5492 34.3715 20.0773 33.7472 19.8675C33.5242 19.7925 33.2908 19.7517 33.0552 19.7466C32.8192 19.7417 32.5858 19.7743 32.3743 19.8477C31.8484 20.0313 31.4516 20.4614 31.4516 21.1964Z" fill="#999999"/>
</g>
</svg>
