<svg width="148" height="148" viewBox="0 0 148 148" fill="none" xmlns="http://www.w3.org/2000/svg">
<g id="&#233;&#146;&#177;&#229;&#184;&#129;&#230;&#173;&#163;&#233;&#157;&#162;">
<g id="&#230;&#164;&#173;&#229;&#156;&#134;&#229;&#189;&#162;" filter="url(#filter0_dii_0_396)">
<circle cx="74" cy="71" r="70" fill="url(#paint0_linear_0_396)"/>
</g>
<g id="&#229;&#155;&#190;&#229;&#177;&#130; 1">
<g id="&#232;&#146;&#153;&#231;&#137;&#136;" filter="url(#filter1_ii_0_396)">
<circle cx="74.5" cy="70.5" r="52.5" fill="url(#paint1_linear_0_396)"/>
</g>
<mask id="mask0_0_396" style="mask-type:luminance" maskUnits="userSpaceOnUse" x="22" y="18" width="105" height="105">
<circle id="&#232;&#146;&#153;&#231;&#137;&#136;_2" cx="74.5" cy="70.5" r="52.5" fill="white"/>
</mask>
<g mask="url(#mask0_0_396)">
</g>
</g>
<g id="&#231;&#159;&#169;&#229;&#189;&#162;" filter="url(#filter2_dii_0_396)">
<rect x="57" y="53" width="35" height="35" fill="white"/>
<rect x="57" y="53" width="35" height="35" stroke="url(#paint2_linear_0_396)" stroke-width="4"/>
</g>
<g id="&#233;&#150;&#139;">
<g id="&#229;&#189;&#162;&#231;&#138;&#182;" filter="url(#filter3_di_0_396)">
<path fill-rule="evenodd" clip-rule="evenodd" d="M60.6667 32.816C60.6667 30.5233 60.5617 28.6475 60.3519 27.1885C60.142 26.3548 60.3519 25.7295 60.9815 25.3126C61.821 25.1042 62.4506 25.2084 62.8704 25.6253C63.5 25.4169 64.2346 25.3126 65.0741 25.3126C65.7037 25.3126 66.7531 25.4169 68.2222 25.6253L70.1111 25C70.5309 25 70.9506 25.1042 71.3704 25.3126C71.7901 25.7295 72 26.2506 72 26.8758C71.7901 28.9601 71.6852 30.7317 71.6852 32.1907C71.6852 33.4413 70.8457 33.8581 69.1667 33.4413C66.4383 33.2329 64.6543 33.2329 63.8148 33.4413C63.8148 36.5677 63.6049 39.2772 63.1852 41.5699C62.5556 43.6542 61.821 45.1132 60.9815 45.9469C59.9321 46.7806 58.9877 47.3016 58.1481 47.5101C57.0988 47.7185 56.2593 47.5101 55.6296 46.8848C54.7901 46.0511 54.7901 45.4258 55.6296 45.009C56.679 44.5921 57.8333 43.6542 59.0926 42.1952C60.142 40.7362 60.6667 37.6098 60.6667 32.816ZM63.941 27.3743C63.5 27.7166 63.3898 28.0588 63.6102 28.4011C64.9332 28.5722 66.6971 28.5722 68.9021 28.4011C69.3431 28.0588 69.2328 27.7166 68.5713 27.3743C66.1459 27.0321 64.6025 27.0321 63.941 27.3743ZM79.1944 27.4706C78.9723 27.8235 79.0833 28.0882 79.5276 28.2647C81.5267 28.6176 83.4148 28.6176 85.1918 28.2647C85.636 27.9118 85.525 27.5588 84.8586 27.2059C81.971 27.0294 80.0829 27.1176 79.1944 27.4706ZM78.6754 46.9985V40.7439H83.1514C84.2171 40.9523 84.75 40.6396 84.75 39.8057C84.75 39.1802 84.1106 38.8675 82.8317 38.8675H78.6754V36.3656C81.02 36.5741 82.1923 36.2614 82.1923 35.4274C82.4054 34.8019 81.1266 34.4892 78.3557 34.4892H72.2811C70.576 34.4892 69.2971 34.385 68.4446 34.1765C67.3788 34.1765 66.7394 34.6977 66.5263 35.7401C66.3131 36.5741 66.6328 36.8868 67.4854 36.6783C68.5511 36.4698 69.6168 36.3656 70.6826 36.3656V38.8675H67.1657C65.6737 38.8675 64.7145 39.4929 64.2883 40.7439C64.0751 41.5778 64.2883 41.8905 64.9277 41.6821C66.2065 41.2651 68.1248 40.9523 70.6826 40.7439C70.4694 43.2457 68.7643 45.1221 65.5671 46.373C65.9934 47.624 67.0591 48.1452 68.7643 47.9367C71.322 47.1028 72.814 44.7051 73.2403 40.7439H75.798V46.6858C75.798 47.9367 76.4374 48.4579 77.7163 48.2494C78.3557 48.2494 78.6754 47.8325 78.6754 46.9985ZM72.7083 36.2941H75.0883C75.5417 36.5294 75.655 37.4706 75.4283 39.1176H72.7083V36.2941ZM80.0899 31.0392C79.6923 30.6209 79.6923 30.3072 80.0899 30.098C81.4817 29.8889 83.1718 29.8889 85.1601 30.098C85.5577 30.3072 85.5577 30.6209 85.1601 31.0392C83.3706 31.4575 81.6806 31.4575 80.0899 31.0392ZM63.6102 31.7059C63.3898 31.2353 63.5 30.7647 63.941 30.2941C64.823 30.0588 66.3664 29.9412 68.5713 29.9412C69.2328 30.4118 69.3431 31 68.9021 31.7059C67.1381 32.1765 65.3742 32.1765 63.6102 31.7059ZM79.6707 33.1569C81.9512 32.9461 83.8171 32.9461 85.2683 33.1569V46.7518C85.2683 48.2272 85.6829 48.9649 86.5122 48.9649C88.1707 49.1756 89 48.4379 89 46.7518C88.5854 43.1686 88.378 38.4262 88.378 32.5246C88.378 30.2061 88.4817 28.4145 88.689 27.1499C88.8963 25.6745 88.1707 25.0422 86.5122 25.2529C85.8902 25.2529 85.2683 25.3583 84.6463 25.5691C83.4024 25.3583 81.7439 25.3583 79.6707 25.5691C78.6341 24.9368 77.7012 24.8314 76.872 25.2529C76.4573 25.6745 76.25 26.3068 76.25 27.1499C76.4573 27.993 76.561 29.6792 76.561 32.2084C76.561 33.2623 76.7683 33.7892 77.1829 33.7892C78.2195 34 79.0488 33.7892 79.6707 33.1569Z" fill="#393B41" fill-opacity="0.6"/>
<path fill-rule="evenodd" clip-rule="evenodd" d="M60.6667 32.816C60.6667 30.5233 60.5617 28.6475 60.3519 27.1885C60.142 26.3548 60.3519 25.7295 60.9815 25.3126C61.821 25.1042 62.4506 25.2084 62.8704 25.6253C63.5 25.4169 64.2346 25.3126 65.0741 25.3126C65.7037 25.3126 66.7531 25.4169 68.2222 25.6253L70.1111 25C70.5309 25 70.9506 25.1042 71.3704 25.3126C71.7901 25.7295 72 26.2506 72 26.8758C71.7901 28.9601 71.6852 30.7317 71.6852 32.1907C71.6852 33.4413 70.8457 33.8581 69.1667 33.4413C66.4383 33.2329 64.6543 33.2329 63.8148 33.4413C63.8148 36.5677 63.6049 39.2772 63.1852 41.5699C62.5556 43.6542 61.821 45.1132 60.9815 45.9469C59.9321 46.7806 58.9877 47.3016 58.1481 47.5101C57.0988 47.7185 56.2593 47.5101 55.6296 46.8848C54.7901 46.0511 54.7901 45.4258 55.6296 45.009C56.679 44.5921 57.8333 43.6542 59.0926 42.1952C60.142 40.7362 60.6667 37.6098 60.6667 32.816ZM63.941 27.3743C63.5 27.7166 63.3898 28.0588 63.6102 28.4011C64.9332 28.5722 66.6971 28.5722 68.9021 28.4011C69.3431 28.0588 69.2328 27.7166 68.5713 27.3743C66.1459 27.0321 64.6025 27.0321 63.941 27.3743ZM79.1944 27.4706C78.9723 27.8235 79.0833 28.0882 79.5276 28.2647C81.5267 28.6176 83.4148 28.6176 85.1918 28.2647C85.636 27.9118 85.525 27.5588 84.8586 27.2059C81.971 27.0294 80.0829 27.1176 79.1944 27.4706ZM78.6754 46.9985V40.7439H83.1514C84.2171 40.9523 84.75 40.6396 84.75 39.8057C84.75 39.1802 84.1106 38.8675 82.8317 38.8675H78.6754V36.3656C81.02 36.5741 82.1923 36.2614 82.1923 35.4274C82.4054 34.8019 81.1266 34.4892 78.3557 34.4892H72.2811C70.576 34.4892 69.2971 34.385 68.4446 34.1765C67.3788 34.1765 66.7394 34.6977 66.5263 35.7401C66.3131 36.5741 66.6328 36.8868 67.4854 36.6783C68.5511 36.4698 69.6168 36.3656 70.6826 36.3656V38.8675H67.1657C65.6737 38.8675 64.7145 39.4929 64.2883 40.7439C64.0751 41.5778 64.2883 41.8905 64.9277 41.6821C66.2065 41.2651 68.1248 40.9523 70.6826 40.7439C70.4694 43.2457 68.7643 45.1221 65.5671 46.373C65.9934 47.624 67.0591 48.1452 68.7643 47.9367C71.322 47.1028 72.814 44.7051 73.2403 40.7439H75.798V46.6858C75.798 47.9367 76.4374 48.4579 77.7163 48.2494C78.3557 48.2494 78.6754 47.8325 78.6754 46.9985ZM72.7083 36.2941H75.0883C75.5417 36.5294 75.655 37.4706 75.4283 39.1176H72.7083V36.2941ZM80.0899 31.0392C79.6923 30.6209 79.6923 30.3072 80.0899 30.098C81.4817 29.8889 83.1718 29.8889 85.1601 30.098C85.5577 30.3072 85.5577 30.6209 85.1601 31.0392C83.3706 31.4575 81.6806 31.4575 80.0899 31.0392ZM63.6102 31.7059C63.3898 31.2353 63.5 30.7647 63.941 30.2941C64.823 30.0588 66.3664 29.9412 68.5713 29.9412C69.2328 30.4118 69.3431 31 68.9021 31.7059C67.1381 32.1765 65.3742 32.1765 63.6102 31.7059ZM79.6707 33.1569C81.9512 32.9461 83.8171 32.9461 85.2683 33.1569V46.7518C85.2683 48.2272 85.6829 48.9649 86.5122 48.9649C88.1707 49.1756 89 48.4379 89 46.7518C88.5854 43.1686 88.378 38.4262 88.378 32.5246C88.378 30.2061 88.4817 28.4145 88.689 27.1499C88.8963 25.6745 88.1707 25.0422 86.5122 25.2529C85.8902 25.2529 85.2683 25.3583 84.6463 25.5691C83.4024 25.3583 81.7439 25.3583 79.6707 25.5691C78.6341 24.9368 77.7012 24.8314 76.872 25.2529C76.4573 25.6745 76.25 26.3068 76.25 27.1499C76.4573 27.993 76.561 29.6792 76.561 32.2084C76.561 33.2623 76.7683 33.7892 77.1829 33.7892C78.2195 34 79.0488 33.7892 79.6707 33.1569Z" fill="url(#paint3_linear_0_396)"/>
</g>
</g>
<g id="&#229;&#133;&#131;">
<g id="&#229;&#189;&#162;&#231;&#138;&#182;_2" filter="url(#filter4_di_0_396)">
<path fill-rule="evenodd" clip-rule="evenodd" d="M83.3916 93.9382C81.9296 93.5212 80.1543 93.3127 78.0657 93.3127C73.0531 93.5212 68.4583 93.417 64.2811 93C63.2368 93.417 62.5058 94.0425 62.0881 94.8765C61.6704 96.1274 61.9837 96.6487 63.028 96.4402C64.0723 96.2317 65.6387 96.0232 67.7273 95.8147H79.9455C81.6163 95.8147 82.765 95.7104 83.3916 95.5019C84.227 95.085 84.227 94.5637 83.3916 93.9382ZM84.5599 98.8864H69.002C65.0607 99.0935 62.5715 98.99 61.5343 98.5758C60.0822 98.99 59.2525 99.8184 59.045 101.061C59.045 102.304 59.4599 102.822 60.2897 102.614C62.364 101.579 65.0607 101.165 68.3797 101.372C68.3797 104.478 67.6537 106.757 66.2016 108.206C64.1273 110.277 61.4306 111.209 58.1116 111.002C56.6595 111.002 55.6223 111.209 55 111.624C55 112.245 55.3112 112.866 55.9335 113.488C58.6302 114.523 61.638 114.42 64.957 113.177C67.0314 112.141 68.5872 110.795 69.6244 109.138C70.6615 107.067 71.1801 104.478 71.1801 101.372H73.6694V105.41C73.6694 107.689 74.6029 109.656 76.4698 111.313C78.9591 113.384 81.4483 114.834 83.9376 115.662C87.2566 116.698 89.9533 115.352 92.0276 111.624C93.0648 109.553 93.2723 108.413 92.6499 108.206C91.6128 108.828 90.2644 109.553 88.6049 110.381C85.7008 111.417 82.5892 110.899 79.2702 108.828C77.6107 107.792 76.6772 106.549 76.4698 105.1V101.372H85.4933C86.5305 101.372 87.0491 100.854 87.0491 99.8184C87.0491 99.1971 86.2194 98.8864 84.5599 98.8864Z" fill="#393B41" fill-opacity="0.6"/>
<path fill-rule="evenodd" clip-rule="evenodd" d="M83.3916 93.9382C81.9296 93.5212 80.1543 93.3127 78.0657 93.3127C73.0531 93.5212 68.4583 93.417 64.2811 93C63.2368 93.417 62.5058 94.0425 62.0881 94.8765C61.6704 96.1274 61.9837 96.6487 63.028 96.4402C64.0723 96.2317 65.6387 96.0232 67.7273 95.8147H79.9455C81.6163 95.8147 82.765 95.7104 83.3916 95.5019C84.227 95.085 84.227 94.5637 83.3916 93.9382ZM84.5599 98.8864H69.002C65.0607 99.0935 62.5715 98.99 61.5343 98.5758C60.0822 98.99 59.2525 99.8184 59.045 101.061C59.045 102.304 59.4599 102.822 60.2897 102.614C62.364 101.579 65.0607 101.165 68.3797 101.372C68.3797 104.478 67.6537 106.757 66.2016 108.206C64.1273 110.277 61.4306 111.209 58.1116 111.002C56.6595 111.002 55.6223 111.209 55 111.624C55 112.245 55.3112 112.866 55.9335 113.488C58.6302 114.523 61.638 114.42 64.957 113.177C67.0314 112.141 68.5872 110.795 69.6244 109.138C70.6615 107.067 71.1801 104.478 71.1801 101.372H73.6694V105.41C73.6694 107.689 74.6029 109.656 76.4698 111.313C78.9591 113.384 81.4483 114.834 83.9376 115.662C87.2566 116.698 89.9533 115.352 92.0276 111.624C93.0648 109.553 93.2723 108.413 92.6499 108.206C91.6128 108.828 90.2644 109.553 88.6049 110.381C85.7008 111.417 82.5892 110.899 79.2702 108.828C77.6107 107.792 76.6772 106.549 76.4698 105.1V101.372H85.4933C86.5305 101.372 87.0491 100.854 87.0491 99.8184C87.0491 99.1971 86.2194 98.8864 84.5599 98.8864Z" fill="url(#paint4_linear_0_396)"/>
</g>
</g>
<g id="&#233;&#128;&#154;">
<g id="&#229;&#189;&#162;&#231;&#138;&#182;_3" filter="url(#filter5_di_0_396)">
<path fill-rule="evenodd" clip-rule="evenodd" d="M110.272 74.751C110.425 76.8993 110.808 77.7049 111.422 77.1678C112.342 77.4364 112.648 75.5566 112.342 71.5287H115.791L116.021 76.765C116.174 77.3021 116.404 77.5706 116.711 77.5706C117.784 77.5706 118.321 77.0336 118.321 75.9594C118.167 73.2741 118.091 70.4545 118.091 67.5007C118.091 65.621 118.167 64.1441 118.321 63.0699C118.627 61.4587 118.091 60.5189 116.711 60.2503L115.331 61.0559C114.105 61.0559 113.261 60.9217 112.801 60.6531C113.108 60.3846 113.261 59.8476 113.261 59.042C113.875 58.2364 115.024 57.6993 116.711 57.4308C116.864 57.1622 117.017 56.7594 117.171 56.2224C117.324 55.4168 117.171 54.7455 116.711 54.2084C116.404 53.9399 116.098 53.8056 115.791 53.8056C115.178 54.0741 114.641 54.2084 114.181 54.2084C113.261 53.9399 112.418 53.5371 111.652 53C110.732 53 109.659 53.4028 108.432 54.2084C107.819 54.4769 107.359 54.6112 107.052 54.6112C106.592 54.0741 106.209 53.9399 105.903 54.2084C105.289 54.4769 104.906 55.4168 104.753 57.028C104.906 58.1021 105.289 58.5049 105.903 58.2364C106.822 57.1622 108.279 56.3566 110.272 55.8196C111.038 55.551 111.958 55.6853 113.031 56.2224C113.338 56.7594 113.108 57.4308 112.342 58.2364L110.502 57.4308C109.735 57.4308 109.352 57.8336 109.352 58.6392C109.812 59.1762 110.349 59.7133 110.962 60.2503C109.429 60.7874 108.049 60.7874 106.822 60.2503C105.903 59.9818 105.443 60.6531 105.443 62.2643C105.749 63.8755 105.903 65.7552 105.903 67.9035C105.903 69.5147 105.749 71.2601 105.443 73.1399C105.443 74.214 105.519 75.1538 105.673 75.9594C103.833 75.4224 102.53 74.8853 101.763 74.3483C102.377 73.8112 102.836 73.1399 103.143 72.3343C103.296 71.5287 103.066 70.7231 102.453 69.9175C101.687 69.1119 101.303 68.5748 101.303 68.3063L102.683 66.6951C103.143 65.8895 103.373 65.3524 103.373 65.0839C103.373 63.4727 102.836 62.6671 101.763 62.6671C100.997 62.9357 100.23 63.0699 99.4636 63.0699C98.8504 63.0699 98.3905 62.8014 98.0839 62.2643C97.4706 61.7273 96.934 62.2643 96.4741 63.8755C96.3208 64.1441 96.2442 64.6811 96.2442 65.4867C96.2442 65.7552 96.3975 66.0238 96.7041 66.2923C97.164 66.0238 97.7006 65.621 98.3138 65.0839H100.154C100.613 65.0839 100.843 65.3524 100.843 65.8895C100.537 67.2322 100.154 68.3063 99.6936 69.1119C100 69.649 100.383 70.186 100.843 70.7231C101.15 70.9916 101.227 71.3944 101.073 71.9315C100.92 72.7371 100.613 73.4084 100.154 73.9455C98.6204 74.4825 97.7979 74.751 96.2648 74.751C95.8049 75.0196 95.4216 75.8252 95.115 77.1678C94.8084 78.779 95.115 79.4503 96.0348 79.1818C96.9547 78.3762 97.7772 77.7049 99.9236 77.1678C100.843 76.8993 102.53 77.3021 104.983 78.3762C107.742 79.7189 110.349 81.1958 112.801 82.807C115.561 84.6867 117.324 85.358 118.091 84.821C119.164 84.821 120.467 82.6727 122 78.3762C117.554 79.4503 112.572 78.779 107.052 76.3622C107.512 76.0937 107.819 74.6168 107.972 71.9315H110.272V74.751ZM98.0839 55.014C98.5438 54.4769 99.0037 54.4769 99.4636 55.014C100.69 56.6252 102.147 57.8336 103.833 58.6392C103.986 59.1762 103.756 59.4448 103.143 59.4448C101.303 59.7133 99.6169 59.579 98.0839 59.042C97.7772 58.7734 97.5473 58.2364 97.394 57.4308C97.5473 56.0881 97.7772 55.2825 98.0839 55.014ZM107.972 65.4867L107.742 63.4727C108.202 62.9357 109.045 62.6671 110.272 62.6671C110.425 63.7413 110.425 64.6811 110.272 65.4867H107.972ZM112.342 65.4867V62.6671H114.181C115.101 62.6671 115.638 63.2042 115.791 64.2783V65.4867H112.342ZM107.972 67.5007H110.272V69.5147C109.505 70.0517 108.739 70.0517 107.972 69.5147V67.5007ZM112.342 69.5147H115.791V67.5007H112.342V69.5147Z" fill="#393B41" fill-opacity="0.6"/>
<path fill-rule="evenodd" clip-rule="evenodd" d="M110.272 74.751C110.425 76.8993 110.808 77.7049 111.422 77.1678C112.342 77.4364 112.648 75.5566 112.342 71.5287H115.791L116.021 76.765C116.174 77.3021 116.404 77.5706 116.711 77.5706C117.784 77.5706 118.321 77.0336 118.321 75.9594C118.167 73.2741 118.091 70.4545 118.091 67.5007C118.091 65.621 118.167 64.1441 118.321 63.0699C118.627 61.4587 118.091 60.5189 116.711 60.2503L115.331 61.0559C114.105 61.0559 113.261 60.9217 112.801 60.6531C113.108 60.3846 113.261 59.8476 113.261 59.042C113.875 58.2364 115.024 57.6993 116.711 57.4308C116.864 57.1622 117.017 56.7594 117.171 56.2224C117.324 55.4168 117.171 54.7455 116.711 54.2084C116.404 53.9399 116.098 53.8056 115.791 53.8056C115.178 54.0741 114.641 54.2084 114.181 54.2084C113.261 53.9399 112.418 53.5371 111.652 53C110.732 53 109.659 53.4028 108.432 54.2084C107.819 54.4769 107.359 54.6112 107.052 54.6112C106.592 54.0741 106.209 53.9399 105.903 54.2084C105.289 54.4769 104.906 55.4168 104.753 57.028C104.906 58.1021 105.289 58.5049 105.903 58.2364C106.822 57.1622 108.279 56.3566 110.272 55.8196C111.038 55.551 111.958 55.6853 113.031 56.2224C113.338 56.7594 113.108 57.4308 112.342 58.2364L110.502 57.4308C109.735 57.4308 109.352 57.8336 109.352 58.6392C109.812 59.1762 110.349 59.7133 110.962 60.2503C109.429 60.7874 108.049 60.7874 106.822 60.2503C105.903 59.9818 105.443 60.6531 105.443 62.2643C105.749 63.8755 105.903 65.7552 105.903 67.9035C105.903 69.5147 105.749 71.2601 105.443 73.1399C105.443 74.214 105.519 75.1538 105.673 75.9594C103.833 75.4224 102.53 74.8853 101.763 74.3483C102.377 73.8112 102.836 73.1399 103.143 72.3343C103.296 71.5287 103.066 70.7231 102.453 69.9175C101.687 69.1119 101.303 68.5748 101.303 68.3063L102.683 66.6951C103.143 65.8895 103.373 65.3524 103.373 65.0839C103.373 63.4727 102.836 62.6671 101.763 62.6671C100.997 62.9357 100.23 63.0699 99.4636 63.0699C98.8504 63.0699 98.3905 62.8014 98.0839 62.2643C97.4706 61.7273 96.934 62.2643 96.4741 63.8755C96.3208 64.1441 96.2442 64.6811 96.2442 65.4867C96.2442 65.7552 96.3975 66.0238 96.7041 66.2923C97.164 66.0238 97.7006 65.621 98.3138 65.0839H100.154C100.613 65.0839 100.843 65.3524 100.843 65.8895C100.537 67.2322 100.154 68.3063 99.6936 69.1119C100 69.649 100.383 70.186 100.843 70.7231C101.15 70.9916 101.227 71.3944 101.073 71.9315C100.92 72.7371 100.613 73.4084 100.154 73.9455C98.6204 74.4825 97.7979 74.751 96.2648 74.751C95.8049 75.0196 95.4216 75.8252 95.115 77.1678C94.8084 78.779 95.115 79.4503 96.0348 79.1818C96.9547 78.3762 97.7772 77.7049 99.9236 77.1678C100.843 76.8993 102.53 77.3021 104.983 78.3762C107.742 79.7189 110.349 81.1958 112.801 82.807C115.561 84.6867 117.324 85.358 118.091 84.821C119.164 84.821 120.467 82.6727 122 78.3762C117.554 79.4503 112.572 78.779 107.052 76.3622C107.512 76.0937 107.819 74.6168 107.972 71.9315H110.272V74.751ZM98.0839 55.014C98.5438 54.4769 99.0037 54.4769 99.4636 55.014C100.69 56.6252 102.147 57.8336 103.833 58.6392C103.986 59.1762 103.756 59.4448 103.143 59.4448C101.303 59.7133 99.6169 59.579 98.0839 59.042C97.7772 58.7734 97.5473 58.2364 97.394 57.4308C97.5473 56.0881 97.7772 55.2825 98.0839 55.014ZM107.972 65.4867L107.742 63.4727C108.202 62.9357 109.045 62.6671 110.272 62.6671C110.425 63.7413 110.425 64.6811 110.272 65.4867H107.972ZM112.342 65.4867V62.6671H114.181C115.101 62.6671 115.638 63.2042 115.791 64.2783V65.4867H112.342ZM107.972 67.5007H110.272V69.5147C109.505 70.0517 108.739 70.0517 107.972 69.5147V67.5007ZM112.342 69.5147H115.791V67.5007H112.342V69.5147Z" fill="url(#paint5_linear_0_396)"/>
</g>
</g>
<g id="&#229;&#175;&#179;">
<g id="&#229;&#189;&#162;&#231;&#138;&#182;_4" filter="url(#filter6_di_0_396)">
<path fill-rule="evenodd" clip-rule="evenodd" d="M40.2979 53C41.8865 53 42.6809 54.012 42.6809 56.0361C46.2553 56.6145 49.234 56.4699 51.617 55.6024C53.0071 55.0241 53.8014 56.0361 54 58.6386C54 61.8193 53.8014 63.8434 53.4043 64.7108C52.8085 65.5783 52.4113 65.4337 52.2128 64.2771C52.2128 62.8313 52.1135 61.6747 51.9149 60.8072C51.7163 59.3614 51.1206 58.6386 50.1277 58.6386C46.7518 58.3494 43.5745 58.2048 40.5957 58.2048C37.617 58.2048 34.0426 58.3494 29.8723 58.6386C28.6809 58.6386 28.0851 59.506 28.0851 61.241V64.7108C27.6879 66.1566 27.1915 66.1566 26.5957 64.7108C26.1986 62.9759 26 60.8072 26 58.2048C26.3972 55.8916 27.1915 55.1687 28.383 56.0361C33.9433 56.6145 37.1206 56.4699 37.9149 55.6024C38.1135 53.8675 38.9078 53 40.2979 53ZM31.0638 60.3735C35.4326 60.3735 37.9149 60.5181 38.5106 60.8072C38.9078 61.9639 37.9149 62.3976 35.5319 62.1084V63.8434H37.3191C38.3121 64.1325 38.5106 64.5663 37.9149 65.1446C37.5177 65.4337 36.7234 65.5783 35.5319 65.5783V67.3133C38.1135 67.3133 39.1064 67.8916 38.5106 69.0482C34.3404 69.0482 31.3617 69.3373 29.5745 69.9157C28.7801 69.9157 28.5816 69.3373 28.9787 68.1807C29.3759 67.6024 30.0709 67.3133 31.0638 67.3133H33.1489V65.5783C32.3546 65.5783 31.6596 65.7229 31.0638 66.012C30.4681 66.3012 30.1702 66.1566 30.1702 65.5783C30.5674 64.4217 30.9645 63.8434 31.3617 63.8434H33.1489V62.1084C32.5532 62.1084 31.6596 62.253 30.4681 62.5422C30.0709 62.8313 29.8723 62.6867 29.8723 62.1084C30.0709 61.241 30.4681 60.6627 31.0638 60.3735ZM44.766 72.9518C45.1631 73.5301 45.2624 73.9639 45.0638 74.253H33.7447C33.5461 73.3855 33.7447 72.9518 34.3404 72.9518H44.766ZM33.7447 75.988V77.2892H45.0638V75.988H33.7447ZM51.0213 87.6988C48.6383 86.5422 46.156 84.9518 43.5745 82.9277C42.5816 82.3494 41.8865 82.6386 41.4894 83.7952C41.0922 84.9518 41.4894 85.8193 42.6809 86.3976C45.461 87.8434 48.0426 88.7108 50.4255 89C51.2199 88.7108 51.4184 88.2771 51.0213 87.6988ZM34.6383 82.9277C35.234 82.3494 35.9291 82.494 36.7234 83.3614C37.3191 84.5181 37.0213 85.5301 35.8298 86.3976C33.4468 87.8434 30.766 88.7108 27.7872 89C26.9929 89 26.8936 88.5663 27.4894 87.6988C30.2695 86.5422 32.6525 84.9518 34.6383 82.9277ZM30.4681 72.0843C30.6667 74.1084 30.6667 77.2892 30.4681 81.6265C30.4681 83.0723 31.6596 83.3614 34.0426 82.494C37.2199 81.9157 40.7943 81.9157 44.766 82.494C47.3475 83.6506 48.539 83.3614 48.3404 81.6265C48.539 79.0241 48.6383 76.1325 48.6383 72.9518C48.4397 70.6386 47.4468 69.9157 45.6596 70.7831C45.5358 70.791 45.4125 70.7986 45.2897 70.806C45.7017 70.6623 46.0236 70.3656 46.2553 69.9157C46.6525 69.3373 46.8511 68.6145 46.8511 67.747V62.9759H48.9362C49.3333 62.9759 49.5319 63.6988 49.5319 65.1446C49.9291 65.7229 50.2269 65.7229 50.4255 65.1446C50.8227 64.2771 51.0213 63.4096 51.0213 62.5422C50.6241 60.8072 50.0284 60.3735 49.234 61.241H43.8723C44.8652 59.7952 44.766 58.9277 43.5745 58.6386C42.9787 58.6386 42.4823 58.9277 42.0851 59.506C41.2908 61.5301 40.3972 63.1205 39.4043 64.2771C39.0071 65.1446 39.305 65.4337 40.2979 65.1446C41.0922 64.5663 41.9858 63.8434 42.9787 62.9759H44.4681V67.747C44.2695 68.6145 43.3759 68.9036 41.7872 68.6145C41.1915 68.9036 41.4894 69.4819 42.6809 70.3494C43.2423 70.6219 43.7449 70.7945 44.1888 70.8673C40.2343 71.0689 36.753 71.0408 33.7447 70.7831C31.7589 69.9157 30.6667 70.3494 30.4681 72.0843ZM45.2897 70.806C44.9187 70.8284 44.5518 70.8488 44.1888 70.8673C44.6083 70.9361 44.9752 70.9156 45.2897 70.806ZM34.0426 80.3253H44.4681C44.8652 80.3253 45.0638 79.8916 45.0638 79.0241H33.7447C33.5461 79.8916 33.6454 80.3253 34.0426 80.3253ZM49.234 65.1446C50.227 66.5904 51.4184 67.747 52.8085 68.6145C53.0071 69.4819 52.8085 69.7711 52.2128 69.4819C50.8227 69.1928 49.5319 68.6145 48.3404 67.747C47.7447 67.1687 47.5461 66.4458 47.7447 65.5783C48.1418 64.4217 48.6383 64.2771 49.234 65.1446ZM43.5745 64.7108C43.3759 63.8434 42.8794 63.6988 42.0851 64.2771C41.0922 65.7229 40.0993 66.8795 39.1064 67.747C38.7092 68.3253 38.9078 68.6145 39.7021 68.6145C40.4965 68.3253 41.5887 67.747 42.9787 66.8795C43.7731 66.3012 43.9716 65.5783 43.5745 64.7108Z" fill="#393B41" fill-opacity="0.6"/>
<path fill-rule="evenodd" clip-rule="evenodd" d="M40.2979 53C41.8865 53 42.6809 54.012 42.6809 56.0361C46.2553 56.6145 49.234 56.4699 51.617 55.6024C53.0071 55.0241 53.8014 56.0361 54 58.6386C54 61.8193 53.8014 63.8434 53.4043 64.7108C52.8085 65.5783 52.4113 65.4337 52.2128 64.2771C52.2128 62.8313 52.1135 61.6747 51.9149 60.8072C51.7163 59.3614 51.1206 58.6386 50.1277 58.6386C46.7518 58.3494 43.5745 58.2048 40.5957 58.2048C37.617 58.2048 34.0426 58.3494 29.8723 58.6386C28.6809 58.6386 28.0851 59.506 28.0851 61.241V64.7108C27.6879 66.1566 27.1915 66.1566 26.5957 64.7108C26.1986 62.9759 26 60.8072 26 58.2048C26.3972 55.8916 27.1915 55.1687 28.383 56.0361C33.9433 56.6145 37.1206 56.4699 37.9149 55.6024C38.1135 53.8675 38.9078 53 40.2979 53ZM31.0638 60.3735C35.4326 60.3735 37.9149 60.5181 38.5106 60.8072C38.9078 61.9639 37.9149 62.3976 35.5319 62.1084V63.8434H37.3191C38.3121 64.1325 38.5106 64.5663 37.9149 65.1446C37.5177 65.4337 36.7234 65.5783 35.5319 65.5783V67.3133C38.1135 67.3133 39.1064 67.8916 38.5106 69.0482C34.3404 69.0482 31.3617 69.3373 29.5745 69.9157C28.7801 69.9157 28.5816 69.3373 28.9787 68.1807C29.3759 67.6024 30.0709 67.3133 31.0638 67.3133H33.1489V65.5783C32.3546 65.5783 31.6596 65.7229 31.0638 66.012C30.4681 66.3012 30.1702 66.1566 30.1702 65.5783C30.5674 64.4217 30.9645 63.8434 31.3617 63.8434H33.1489V62.1084C32.5532 62.1084 31.6596 62.253 30.4681 62.5422C30.0709 62.8313 29.8723 62.6867 29.8723 62.1084C30.0709 61.241 30.4681 60.6627 31.0638 60.3735ZM44.766 72.9518C45.1631 73.5301 45.2624 73.9639 45.0638 74.253H33.7447C33.5461 73.3855 33.7447 72.9518 34.3404 72.9518H44.766ZM33.7447 75.988V77.2892H45.0638V75.988H33.7447ZM51.0213 87.6988C48.6383 86.5422 46.156 84.9518 43.5745 82.9277C42.5816 82.3494 41.8865 82.6386 41.4894 83.7952C41.0922 84.9518 41.4894 85.8193 42.6809 86.3976C45.461 87.8434 48.0426 88.7108 50.4255 89C51.2199 88.7108 51.4184 88.2771 51.0213 87.6988ZM34.6383 82.9277C35.234 82.3494 35.9291 82.494 36.7234 83.3614C37.3191 84.5181 37.0213 85.5301 35.8298 86.3976C33.4468 87.8434 30.766 88.7108 27.7872 89C26.9929 89 26.8936 88.5663 27.4894 87.6988C30.2695 86.5422 32.6525 84.9518 34.6383 82.9277ZM30.4681 72.0843C30.6667 74.1084 30.6667 77.2892 30.4681 81.6265C30.4681 83.0723 31.6596 83.3614 34.0426 82.494C37.2199 81.9157 40.7943 81.9157 44.766 82.494C47.3475 83.6506 48.539 83.3614 48.3404 81.6265C48.539 79.0241 48.6383 76.1325 48.6383 72.9518C48.4397 70.6386 47.4468 69.9157 45.6596 70.7831C45.5358 70.791 45.4125 70.7986 45.2897 70.806C45.7017 70.6623 46.0236 70.3656 46.2553 69.9157C46.6525 69.3373 46.8511 68.6145 46.8511 67.747V62.9759H48.9362C49.3333 62.9759 49.5319 63.6988 49.5319 65.1446C49.9291 65.7229 50.2269 65.7229 50.4255 65.1446C50.8227 64.2771 51.0213 63.4096 51.0213 62.5422C50.6241 60.8072 50.0284 60.3735 49.234 61.241H43.8723C44.8652 59.7952 44.766 58.9277 43.5745 58.6386C42.9787 58.6386 42.4823 58.9277 42.0851 59.506C41.2908 61.5301 40.3972 63.1205 39.4043 64.2771C39.0071 65.1446 39.305 65.4337 40.2979 65.1446C41.0922 64.5663 41.9858 63.8434 42.9787 62.9759H44.4681V67.747C44.2695 68.6145 43.3759 68.9036 41.7872 68.6145C41.1915 68.9036 41.4894 69.4819 42.6809 70.3494C43.2423 70.6219 43.7449 70.7945 44.1888 70.8673C40.2343 71.0689 36.753 71.0408 33.7447 70.7831C31.7589 69.9157 30.6667 70.3494 30.4681 72.0843ZM45.2897 70.806C44.9187 70.8284 44.5518 70.8488 44.1888 70.8673C44.6083 70.9361 44.9752 70.9156 45.2897 70.806ZM34.0426 80.3253H44.4681C44.8652 80.3253 45.0638 79.8916 45.0638 79.0241H33.7447C33.5461 79.8916 33.6454 80.3253 34.0426 80.3253ZM49.234 65.1446C50.227 66.5904 51.4184 67.747 52.8085 68.6145C53.0071 69.4819 52.8085 69.7711 52.2128 69.4819C50.8227 69.1928 49.5319 68.6145 48.3404 67.747C47.7447 67.1687 47.5461 66.4458 47.7447 65.5783C48.1418 64.4217 48.6383 64.2771 49.234 65.1446ZM43.5745 64.7108C43.3759 63.8434 42.8794 63.6988 42.0851 64.2771C41.0922 65.7229 40.0993 66.8795 39.1064 67.747C38.7092 68.3253 38.9078 68.6145 39.7021 68.6145C40.4965 68.3253 41.5887 67.747 42.9787 66.8795C43.7731 66.3012 43.9716 65.5783 43.5745 64.7108Z" fill="url(#paint6_linear_0_396)"/>
</g>
</g>
</g>
<defs>
<filter id="filter0_dii_0_396" x="0" y="0" width="148" height="148" filterUnits="userSpaceOnUse" color-interpolation-filters="sRGB">
<feFlood flood-opacity="0" result="BackgroundImageFix"/>
<feColorMatrix in="SourceAlpha" type="matrix" values="0 0 0 0 0 0 0 0 0 0 0 0 0 0 0 0 0 0 127 0" result="hardAlpha"/>
<feOffset dy="3"/>
<feGaussianBlur stdDeviation="2"/>
<feColorMatrix type="matrix" values="0 0 0 0 0.8 0 0 0 0 0.607843 0 0 0 0 0.290196 0 0 0 0.55843 0"/>
<feBlend mode="normal" in2="BackgroundImageFix" result="effect1_dropShadow_0_396"/>
<feBlend mode="normal" in="SourceGraphic" in2="effect1_dropShadow_0_396" result="shape"/>
<feColorMatrix in="SourceAlpha" type="matrix" values="0 0 0 0 0 0 0 0 0 0 0 0 0 0 0 0 0 0 127 0" result="hardAlpha"/>
<feOffset dy="-2"/>
<feComposite in2="hardAlpha" operator="arithmetic" k2="-1" k3="1"/>
<feColorMatrix type="matrix" values="0 0 0 0 0.647059 0 0 0 0 0.443137 0 0 0 0 0.117647 0 0 0 1 0"/>
<feBlend mode="normal" in2="shape" result="effect2_innerShadow_0_396"/>
<feColorMatrix in="SourceAlpha" type="matrix" values="0 0 0 0 0 0 0 0 0 0 0 0 0 0 0 0 0 0 127 0" result="hardAlpha"/>
<feOffset dy="2"/>
<feComposite in2="hardAlpha" operator="arithmetic" k2="-1" k3="1"/>
<feColorMatrix type="matrix" values="0 0 0 0 1 0 0 0 0 1 0 0 0 0 1 0 0 0 0.599951 0"/>
<feBlend mode="normal" in2="effect2_innerShadow_0_396" result="effect3_innerShadow_0_396"/>
</filter>
<filter id="filter1_ii_0_396" x="22" y="18" width="105" height="105" filterUnits="userSpaceOnUse" color-interpolation-filters="sRGB">
<feFlood flood-opacity="0" result="BackgroundImageFix"/>
<feBlend mode="normal" in="SourceGraphic" in2="BackgroundImageFix" result="shape"/>
<feColorMatrix in="SourceAlpha" type="matrix" values="0 0 0 0 0 0 0 0 0 0 0 0 0 0 0 0 0 0 127 0" result="hardAlpha"/>
<feOffset dy="3"/>
<feComposite in2="hardAlpha" operator="arithmetic" k2="-1" k3="1"/>
<feColorMatrix type="matrix" values="0 0 0 0 0.647059 0 0 0 0 0.443137 0 0 0 0 0.117647 0 0 0 1 0"/>
<feBlend mode="normal" in2="shape" result="effect1_innerShadow_0_396"/>
<feColorMatrix in="SourceAlpha" type="matrix" values="0 0 0 0 0 0 0 0 0 0 0 0 0 0 0 0 0 0 127 0" result="hardAlpha"/>
<feOffset dy="-3"/>
<feComposite in2="hardAlpha" operator="arithmetic" k2="-1" k3="1"/>
<feColorMatrix type="matrix" values="0 0 0 0 0.984314 0 0 0 0 0.898039 0 0 0 0 0.709804 0 0 0 1 0"/>
<feBlend mode="normal" in2="effect1_innerShadow_0_396" result="effect2_innerShadow_0_396"/>
</filter>
<filter id="filter2_dii_0_396" x="54" y="51" width="44" height="43" filterUnits="userSpaceOnUse" color-interpolation-filters="sRGB">
<feFlood flood-opacity="0" result="BackgroundImageFix"/>
<feColorMatrix in="SourceAlpha" type="matrix" values="0 0 0 0 0 0 0 0 0 0 0 0 0 0 0 0 0 0 127 0" result="hardAlpha"/>
<feOffset dy="1"/>
<feGaussianBlur stdDeviation="0.5"/>
<feColorMatrix type="matrix" values="0 0 0 0 0.516729 0 0 0 0 0.322706 0 0 0 0 0.0130167 0 0 0 1 0"/>
<feBlend mode="normal" in2="BackgroundImageFix" result="effect1_dropShadow_0_396"/>
<feBlend mode="normal" in="SourceGraphic" in2="effect1_dropShadow_0_396" result="shape"/>
<feColorMatrix in="SourceAlpha" type="matrix" values="0 0 0 0 0 0 0 0 0 0 0 0 0 0 0 0 0 0 127 0" result="hardAlpha"/>
<feMorphology radius="2" operator="erode" in="SourceAlpha" result="effect2_innerShadow_0_396"/>
<feOffset dx="4" dy="4"/>
<feComposite in2="hardAlpha" operator="arithmetic" k2="-1" k3="1"/>
<feColorMatrix type="matrix" values="0 0 0 0 0.922583 0 0 0 0 0.645218 0 0 0 0 0.202501 0 0 0 1 0"/>
<feBlend mode="normal" in2="shape" result="effect2_innerShadow_0_396"/>
<feColorMatrix in="SourceAlpha" type="matrix" values="0 0 0 0 0 0 0 0 0 0 0 0 0 0 0 0 0 0 127 0" result="hardAlpha"/>
<feMorphology radius="2" operator="erode" in="SourceAlpha" result="effect3_innerShadow_0_396"/>
<feOffset dx="4" dy="4"/>
<feGaussianBlur stdDeviation="2.5"/>
<feComposite in2="hardAlpha" operator="arithmetic" k2="-1" k3="1"/>
<feColorMatrix type="matrix" values="0 0 0 0 0.647059 0 0 0 0 0.443137 0 0 0 0 0.117647 0 0 0 0.608474 0"/>
<feBlend mode="normal" in2="effect2_innerShadow_0_396" result="effect3_innerShadow_0_396"/>
</filter>
<filter id="filter3_di_0_396" x="52" y="24" width="40" height="30" filterUnits="userSpaceOnUse" color-interpolation-filters="sRGB">
<feFlood flood-opacity="0" result="BackgroundImageFix"/>
<feColorMatrix in="SourceAlpha" type="matrix" values="0 0 0 0 0 0 0 0 0 0 0 0 0 0 0 0 0 0 127 0" result="hardAlpha"/>
<feOffset dy="2"/>
<feGaussianBlur stdDeviation="1.5"/>
<feColorMatrix type="matrix" values="0 0 0 0 0.8 0 0 0 0 0.607843 0 0 0 0 0.290196 0 0 0 0.55843 0"/>
<feBlend mode="normal" in2="BackgroundImageFix" result="effect1_dropShadow_0_396"/>
<feBlend mode="normal" in="SourceGraphic" in2="effect1_dropShadow_0_396" result="shape"/>
<feColorMatrix in="SourceAlpha" type="matrix" values="0 0 0 0 0 0 0 0 0 0 0 0 0 0 0 0 0 0 127 0" result="hardAlpha"/>
<feOffset dy="-0.5"/>
<feComposite in2="hardAlpha" operator="arithmetic" k2="-1" k3="1"/>
<feColorMatrix type="matrix" values="0 0 0 0 0.447605 0 0 0 0 0.275194 0 0 0 0 0 0 0 0 1 0"/>
<feBlend mode="normal" in2="shape" result="effect2_innerShadow_0_396"/>
</filter>
<filter id="filter4_di_0_396" x="52" y="92" width="44" height="29" filterUnits="userSpaceOnUse" color-interpolation-filters="sRGB">
<feFlood flood-opacity="0" result="BackgroundImageFix"/>
<feColorMatrix in="SourceAlpha" type="matrix" values="0 0 0 0 0 0 0 0 0 0 0 0 0 0 0 0 0 0 127 0" result="hardAlpha"/>
<feOffset dy="2"/>
<feGaussianBlur stdDeviation="1.5"/>
<feColorMatrix type="matrix" values="0 0 0 0 0.8 0 0 0 0 0.607843 0 0 0 0 0.290196 0 0 0 0.55843 0"/>
<feBlend mode="normal" in2="BackgroundImageFix" result="effect1_dropShadow_0_396"/>
<feBlend mode="normal" in="SourceGraphic" in2="effect1_dropShadow_0_396" result="shape"/>
<feColorMatrix in="SourceAlpha" type="matrix" values="0 0 0 0 0 0 0 0 0 0 0 0 0 0 0 0 0 0 127 0" result="hardAlpha"/>
<feOffset dy="-0.5"/>
<feComposite in2="hardAlpha" operator="arithmetic" k2="-1" k3="1"/>
<feColorMatrix type="matrix" values="0 0 0 0 0.447605 0 0 0 0 0.275194 0 0 0 0 0 0 0 0 1 0"/>
<feBlend mode="normal" in2="shape" result="effect2_innerShadow_0_396"/>
</filter>
<filter id="filter5_di_0_396" x="92" y="52" width="33" height="38" filterUnits="userSpaceOnUse" color-interpolation-filters="sRGB">
<feFlood flood-opacity="0" result="BackgroundImageFix"/>
<feColorMatrix in="SourceAlpha" type="matrix" values="0 0 0 0 0 0 0 0 0 0 0 0 0 0 0 0 0 0 127 0" result="hardAlpha"/>
<feOffset dy="2"/>
<feGaussianBlur stdDeviation="1.5"/>
<feColorMatrix type="matrix" values="0 0 0 0 0.8 0 0 0 0 0.607843 0 0 0 0 0.290196 0 0 0 0.55843 0"/>
<feBlend mode="normal" in2="BackgroundImageFix" result="effect1_dropShadow_0_396"/>
<feBlend mode="normal" in="SourceGraphic" in2="effect1_dropShadow_0_396" result="shape"/>
<feColorMatrix in="SourceAlpha" type="matrix" values="0 0 0 0 0 0 0 0 0 0 0 0 0 0 0 0 0 0 127 0" result="hardAlpha"/>
<feOffset dy="-0.5"/>
<feComposite in2="hardAlpha" operator="arithmetic" k2="-1" k3="1"/>
<feColorMatrix type="matrix" values="0 0 0 0 0.447605 0 0 0 0 0.275194 0 0 0 0 0 0 0 0 1 0"/>
<feBlend mode="normal" in2="shape" result="effect2_innerShadow_0_396"/>
</filter>
<filter id="filter6_di_0_396" x="23" y="52" width="34" height="42" filterUnits="userSpaceOnUse" color-interpolation-filters="sRGB">
<feFlood flood-opacity="0" result="BackgroundImageFix"/>
<feColorMatrix in="SourceAlpha" type="matrix" values="0 0 0 0 0 0 0 0 0 0 0 0 0 0 0 0 0 0 127 0" result="hardAlpha"/>
<feOffset dy="2"/>
<feGaussianBlur stdDeviation="1.5"/>
<feColorMatrix type="matrix" values="0 0 0 0 0.8 0 0 0 0 0.607843 0 0 0 0 0.290196 0 0 0 0.55843 0"/>
<feBlend mode="normal" in2="BackgroundImageFix" result="effect1_dropShadow_0_396"/>
<feBlend mode="normal" in="SourceGraphic" in2="effect1_dropShadow_0_396" result="shape"/>
<feColorMatrix in="SourceAlpha" type="matrix" values="0 0 0 0 0 0 0 0 0 0 0 0 0 0 0 0 0 0 127 0" result="hardAlpha"/>
<feOffset dy="-0.5"/>
<feComposite in2="hardAlpha" operator="arithmetic" k2="-1" k3="1"/>
<feColorMatrix type="matrix" values="0 0 0 0 0.447605 0 0 0 0 0.275194 0 0 0 0 0 0 0 0 1 0"/>
<feBlend mode="normal" in2="shape" result="effect2_innerShadow_0_396"/>
</filter>
<linearGradient id="paint0_linear_0_396" x1="147.39" y1="123.199" x2="111.788" y2="-12.993" gradientUnits="userSpaceOnUse">
<stop stop-color="#DF9C35"/>
<stop offset="1" stop-color="#FFE5B5"/>
</linearGradient>
<linearGradient id="paint1_linear_0_396" x1="22" y1="18" x2="22" y2="123" gradientUnits="userSpaceOnUse">
<stop stop-color="#DF9C35"/>
<stop offset="1" stop-color="#F7D086"/>
</linearGradient>
<linearGradient id="paint2_linear_0_396" x1="41.4043" y1="63.6454" x2="62.6951" y2="98.6454" gradientUnits="userSpaceOnUse">
<stop stop-color="#FDE1AE"/>
<stop offset="1" stop-color="#E3A441"/>
</linearGradient>
<linearGradient id="paint3_linear_0_396" x1="84.2107" y1="46.98" x2="81.2825" y2="29.279" gradientUnits="userSpaceOnUse">
<stop stop-color="#DF9C35"/>
<stop offset="1" stop-color="#FFE5B5"/>
</linearGradient>
<linearGradient id="paint4_linear_0_396" x1="87.6473" y1="114.064" x2="85.224" y2="96.9803" gradientUnits="userSpaceOnUse">
<stop stop-color="#DF9C35"/>
<stop offset="1" stop-color="#FFE5B5"/>
</linearGradient>
<linearGradient id="paint5_linear_0_396" x1="118.197" y1="82.3067" x2="111.944" y2="59.7961" gradientUnits="userSpaceOnUse">
<stop stop-color="#DF9C35"/>
<stop offset="1" stop-color="#FFE5B5"/>
</linearGradient>
<linearGradient id="paint6_linear_0_396" x1="62.5783" y1="75.5174" x2="36.729" y2="49.5138" gradientUnits="userSpaceOnUse">
<stop stop-color="#DF9C35"/>
<stop offset="1" stop-color="#FFE5B5"/>
</linearGradient>
</defs>
</svg>
