<svg width="26" height="20" viewBox="0 0 26 20" fill="none" xmlns="http://www.w3.org/2000/svg">
<g id="maxiao">
<path id="&#229;&#189;&#162;&#231;&#138;&#182;" fill-rule="evenodd" clip-rule="evenodd" d="M25.438 17.7216C25.1403 17.6409 24.8601 17.6289 24.6204 17.6185C24.1838 17.5997 23.8814 17.5867 23.8513 17.1754C23.8045 16.538 21.9847 13.7614 21.5179 13.5338C21.283 13.4193 21.0954 12.7743 20.8599 11.9645C20.6276 11.1655 20.3485 10.2059 19.9313 9.43731C19.2717 8.2222 17.2889 8.21363 14.141 8.20002H14.1409C13.2795 8.19629 12.3308 8.19219 11.2981 8.16288C10.0382 8.12707 9.02509 7.56581 8.21608 6.75703C8.74629 6.93454 9.33879 7.02434 10 6.99428C10 6.99428 9.94493 6.28922 9.11915 6.15704C9.11915 6.15704 9.11915 5.45195 9.50471 5.45195C9.89001 5.45195 8.18357 4.61481 7.46806 4.61481C6.75243 4.61481 7.57809 3.73336 8.01846 3.73336C8.45754 3.73336 6.65306 2.72578 5.93296 2.76359C5.87597 2.59743 5.82329 2.43519 5.77468 2.27828C5.91921 2.11378 6.13362 1.96248 6.31191 1.9268C6.52282 1.8845 6.08941 1.6603 5.53827 1.44303C5.3528 0.721186 5.27821 0.242649 5.27821 0.242649C5.24429 0.0499752 4.95144 0 4.95144 0C4.66635 0.0777603 4.59862 0.653275 4.55826 0.996171C4.55364 1.03542 4.54938 1.07163 4.54519 1.10369C4.29454 1.03288 4.09147 0.991194 4 1.00158C4 1.00158 4.03778 1.20458 4.12827 1.5359C3.96638 1.64574 3.78118 1.76667 3.62876 1.86501C2.06427 2.40314 1.25589 3.15006 0.838633 3.78898C0.0389509 4.59041 -0.163489 6.45577 0.844824 6.66084C1.96486 6.88836 2.8515 5.56826 2.8515 5.56826C3.64477 5.75034 4.71821 5.20411 4.71821 5.20411C5.88504 5.43173 5.83824 9.34626 5.83824 9.34626C5.46478 9.93815 4.48485 13.6706 4.48485 13.6706C3.45823 14.3988 0.70498 16.9022 0.471621 17.2208L0.471077 17.2216C0.237308 17.5412 -0.460892 18.4957 0.471621 18.905C2.3049 19.7099 3.31825 16.8113 3.27169 16.5837C3.225 16.3561 4.06496 16.3106 4.06496 16.3106C6.39815 16.0375 8.35827 13.4884 8.35827 13.4884C10.3647 15.036 15.918 13.6706 15.918 13.6706C18.578 15.5367 21.4246 15.8097 21.4246 15.8097C22.0313 17.7216 24.7847 20.0885 25.438 19.9974C26.0912 19.9063 26.2777 17.9492 25.438 17.7216ZM23.0393 9.20884C23.0048 9.17487 22.9761 9.14661 22.9531 9.12621C22.9128 9.09045 22.6551 9.09601 22.2888 9.10391C21.1343 9.12881 18.9018 9.17698 19.0033 8.0279C19.0033 8.0279 20.3762 7.65358 21.1123 7.21756C21.692 6.87408 21.7533 6.98513 21.8837 7.22166C21.9189 7.28556 21.9592 7.35861 22.0162 7.43434C22.1615 7.62772 22.6819 7.56187 23.1646 7.50078C23.5711 7.44935 23.9508 7.40129 24.0578 7.5141C24.1468 7.60768 24.1443 7.78099 24.1415 7.97143C24.137 8.28329 24.1319 8.64111 24.5266 8.77005C25.1624 8.97772 25.1961 10.1353 24.3925 9.98692C23.6997 9.85893 23.2556 9.42179 23.0393 9.20884ZM2 3.44787C2.18288 3.72076 2.66832 4.22849 2.90128 3.88445C3.14117 3.53033 2.92953 3.10544 2.42172 3.01698C2.37722 3.00922 2.33798 3.00375 2.3029 3C2.19205 3.09933 2.08541 3.24253 2 3.44787Z" fill="#222426"/>
</g>
</svg>
