<svg width="295" height="269" viewBox="0 0 295 269" fill="none" xmlns="http://www.w3.org/2000/svg">
<g clip-path="url(#clip0_17_3)">
<path fill-rule="evenodd" clip-rule="evenodd" d="M52.4164 194.355C52.4164 194.355 31.4692 232.652 20.327 245.267C9.18485 257.882 71.5809 238.959 74.7007 261.487C77.8205 284.014 100.996 232.652 100.996 232.652C100.996 232.652 72.4723 213.728 71.5809 213.278C70.6896 212.827 52.4164 194.355 52.4164 194.355Z" fill="#F8DDA6" stroke="#E2A340" stroke-width="2"/>
<path fill-rule="evenodd" clip-rule="evenodd" d="M54.5 201.5C54.5 201.5 63.7428 212.935 79.7562 204.826C95.7696 196.718 129.131 207.529 129.131 207.529C129.131 207.529 132.244 220.593 119.345 228.251C113.315 231.831 95.69 236.699 84.2044 230.053C74.8632 224.647 72.6391 213.836 72.6391 213.836C72.6391 213.836 67.4278 213.976 63.7428 211.583C60.0579 209.191 54.5 201.5 54.5 201.5Z" fill="#F8DFAE" stroke="#E2A340" stroke-width="2"/>
<path fill-rule="evenodd" clip-rule="evenodd" d="M120.727 40.1621C122.871 32.1601 131.096 27.4113 139.098 29.5554L206.139 47.519C214.141 49.6632 218.89 57.8882 216.746 65.8902L174.444 223.76C172.3 231.762 164.075 236.511 156.073 234.366L89.0323 216.403C81.0303 214.259 76.2816 206.034 78.4257 198.032L120.727 40.1621Z" fill="#F8E0B0" stroke="#E2A340" stroke-width="4"/>
<path fill-rule="evenodd" clip-rule="evenodd" d="M78.5 205C91.5 195.5 91.2733 174.943 89.4901 143.805C96.3003 133.561 100.461 126.076 101.973 121.351C108.652 100.475 106.875 87.6497 106.431 83.6266C105.837 78.2374 102.567 75.0937 96.6232 74.1956C92.165 93.6564 88.8956 104.135 86.8152 105.632C83.6944 107.878 57.4115 148.382 52.5 163.5C47.5885 178.618 49.2586 196.713 55.5 203C55.5 203 60.6738 207.423 65 208C72.5 209 78.5 205 78.5 205Z" fill="#F8DFAE" stroke="#E2A340" stroke-width="2"/>
<path fill-rule="evenodd" clip-rule="evenodd" d="M202.645 120.381C202.645 120.381 213.852 119.493 220.576 113.715C227.3 107.937 228.645 95.937 228.645 95.937C228.645 95.937 225.956 92.3814 223.266 92.3814C220.576 92.3814 209.818 93.7147 209.818 93.7147L202.645 120.381Z" fill="#F8DFAE" stroke="#E2A340" stroke-width="2"/>
<path fill-rule="evenodd" clip-rule="evenodd" d="M208.665 119.975C208.665 119.975 216.773 134.015 217.634 136.175C218.531 138.425 219.861 143.856 217.186 149.225C215.392 152.825 210.01 155.975 210.01 155.975C210.01 155.975 212.253 161.375 212.253 164.075C212.253 166.775 213.149 173.075 208.216 176.225C203.283 179.375 196.556 183.425 196.556 183.425C196.556 183.425 199.695 187.925 200.144 191.975C200.592 196.025 199.695 200.075 196.108 201.875C192.52 203.675 176.375 209.975 176.375 209.975C176.375 209.975 169.648 207.725 170.993 201.875C172.339 196.025 188.035 187.025 188.035 187.025C188.035 187.025 178.394 188.453 177.272 187.025C176.249 185.722 174.793 181.579 175.926 178.925C178.617 172.625 189.38 164.075 189.38 164.075C189.38 164.075 179.963 162.725 182.653 155.975C185.344 149.225 197.901 142.475 197.901 142.475L202.835 120.875L208.665 119.975Z" fill="#F8DFAE" stroke="#E2A340" stroke-width="2"/>
<path fill-rule="evenodd" clip-rule="evenodd" d="M207.96 120.426C207.96 120.426 205.654 127.157 206.84 129.596C208.026 132.036 210.793 134.882 210.793 134.882L198.793 142.426L203.159 121.324L207.96 120.426Z" fill="#E2A340"/>
<path fill-rule="evenodd" clip-rule="evenodd" d="M209.519 155.258L204.706 158.369C204.706 158.369 206.954 158.828 208.206 159.702C209.459 160.577 211.706 163.258 211.706 163.258C211.706 163.258 211.706 161.48 210.831 158.813C209.956 156.147 209.519 155.258 209.519 155.258Z" fill="#E2A340"/>
<path fill-rule="evenodd" clip-rule="evenodd" d="M195.602 183.019L185.102 188.706C185.102 188.706 192.572 186.767 195.602 186.956C198.632 187.145 199.102 190.019 199.102 190.019C199.102 190.019 198.568 187.638 197.79 186.081C197.011 184.524 195.602 183.019 195.602 183.019Z" fill="#E2A340"/>
<path d="M159.94 93.5513C169.31 98.9194 162.037 105.046 159.216 100.273C159.989 98.161 159.984 95.5509 159.541 93.6513L159.94 93.5513ZM174.802 100.06C174.418 100.412 173.804 100.538 172.957 100.145C170.355 101.974 167.39 103.457 164.436 104.281L164.084 103.896C165.661 101.876 167.852 98.4873 169.564 95.3433L174.802 100.06ZM175.551 96.4919C174.945 96.7437 174.008 96.5339 172.878 95.6513C167.156 94.905 158.289 93.0675 151.105 90.977L151.173 90.4154C158.119 91.0756 167.307 91.0943 172.149 90.4869L175.551 96.4919ZM168.285 109.701C168.285 109.701 170.525 112.621 171.86 114.593C171.63 114.987 171.154 115.067 170.613 114.922L161.301 112.427L158.765 121.893L161.856 122.721L163.988 114.762L170.489 117.083C170.267 117.604 169.893 117.918 168.77 117.782L166.368 126.746C166.285 127.055 163.809 127.178 161.761 126.63L160.872 126.392L161.566 123.803L150.438 120.821L148.571 122.226L143.974 118.675C144.386 118.371 144.985 117.993 145.541 117.77L147.571 110.197L153.973 112.575C153.702 113.124 153.289 113.427 152.282 113.323L150.574 119.698L153.626 120.516L156.163 111.05L145.537 108.203L145.518 107.038L156.452 109.968L157.778 105.022L155.15 104.318C152.77 105.627 150.004 106.832 147.383 107.496L147.146 107.143C149.12 105.187 151.665 101.562 153.157 98.7738L153.752 99.1816L153.477 98.818C153.91 96.7391 153.621 94.2601 153.214 92.5358L153.575 92.4255C161.759 96.192 158.571 101.135 155.402 100.286L159.308 102.865C159.04 103.249 158.651 103.31 157.698 102.848L156.561 103.537L165.254 105.866L168.485 103.543C168.485 103.543 170.634 106.19 171.93 108.152C171.739 108.556 171.262 108.636 170.721 108.491L162.916 106.399L161.591 111.345L164.953 112.246L168.285 109.701ZM150.075 91.1149C150.075 91.1149 151.8 94.1033 152.633 95.9414C152.441 96.3457 152.003 96.4354 151.462 96.2905L147.637 95.2655L146.095 101.022L150.771 101.033L150.755 101.402C149.386 102.029 147.608 102.794 145.391 103.65L142.295 115.202C141.301 118.911 140.057 120.773 134.591 119.846C135.01 117.971 135.169 116.606 134.982 115.603C134.757 114.59 134.255 113.835 132.803 113.073L132.938 112.571C132.938 112.571 135.717 113.481 136.373 113.657C136.914 113.802 137.11 113.689 137.224 113.264L139.202 105.884L137.299 106.492C136.972 106.943 136.412 107.331 135.868 107.351L135.66 100.711C136.677 100.777 138.393 100.864 140.527 100.938L142.421 93.8679L138.519 92.8223L138.5 91.6576L142.711 92.7861L145.196 83.5132L151.676 85.912C151.443 86.4709 150.953 86.7537 149.956 86.6108L148.3 92.7928L150.075 91.1149ZM138.658 142.222C138.658 142.222 140.963 145.365 142.277 147.415C142.048 147.809 141.609 147.899 141.03 147.744L126.232 143.778L126.213 142.614L135.138 145.005L138.658 142.222ZM138.526 151.214C138.526 151.214 140.831 154.358 142.145 156.408C141.916 156.801 141.439 156.881 140.898 156.736L129.268 153.62L134.837 157.1C134.618 157.455 134.138 157.699 133.404 157.502C130.508 160.122 125.946 163.082 122.388 164.614C124.72 165.031 128.048 165.592 131.619 166.176C132.005 163.96 132.111 161.711 132.106 159.722L132.572 159.681C141.209 168.249 133.594 175.65 130.643 169.973L131.155 168.371C128.495 169.024 125.165 169.706 121.4 170.312C120.956 170.731 120.477 170.976 120 171.055L118.945 163.401C118.945 163.401 120.243 163.501 120.762 163.267C122.801 161.991 126.549 156.659 128.109 153.309L122.468 151.798L122.449 150.633L135.006 153.998L138.526 151.214ZM153.856 145.466C153.575 146.053 153.057 146.287 152.088 146.193L149.847 154.247L153.286 155.169L156.813 153.132L160.257 158.362C159.855 158.627 159.28 158.762 158.35 158.679C153.778 174.35 151.925 178.947 149.066 180.5C147.274 181.469 145.38 181.582 143.062 180.961C143.528 179.223 143.733 177.994 143.455 177.174C143.093 176.207 142.36 175.39 140.957 174.6L141.119 174.146C142.247 174.573 143.965 175.116 144.777 175.333C145.356 175.489 145.745 175.427 146.176 175.211C147.8 174.404 149.726 168.916 153.421 156.364L149.519 155.319C146.031 167.097 142.074 175.065 128.567 177.409L128.354 176.813C137.793 172.344 141.095 164.657 144.109 153.869L140.13 152.803L140.072 151.628L144.399 152.787L146.99 142.963L153.856 145.466Z" fill="#E69635"/>
</g>
<path d="M68.8148 10.6619C68.8148 10.6619 29.5708 47.3934 39.748 107.436" stroke="#E69635" stroke-width="2" stroke-linecap="round"/>
<path d="M35.224 36.6419C35.224 36.6419 10.7689 76.4222 32.6155 124.68" stroke="#E69635" stroke-width="2" stroke-linecap="round"/>
<path d="M260.403 126.79C260.403 126.79 275.013 174.677 238.805 218.319" stroke="#E69635" stroke-width="2" stroke-linecap="round"/>
<path d="M275.219 163.689C275.219 163.689 276.423 207.307 236.198 236.152" stroke="#E69635" stroke-width="2" stroke-linecap="round"/>
<defs>
<clipPath id="clip0_17_3">
<rect width="209.649" height="242.682" fill="white" transform="translate(18.9962 25.6732)"/>
</clipPath>
</defs>
</svg>
